<?xml version="1.0" encoding="utf-8" standalone="no"?>
<!DOCTYPE svg PUBLIC "-//W3C//DTD SVG 1.1//EN"
  "http://www.w3.org/Graphics/SVG/1.1/DTD/svg11.dtd">
<svg xmlns:xlink="http://www.w3.org/1999/xlink" width="712.8pt" height="401.804405pt" viewBox="0 0 712.8 401.804405" xmlns="http://www.w3.org/2000/svg" version="1.1">
 <metadata>
  <rdf:RDF xmlns:dc="http://purl.org/dc/elements/1.1/" xmlns:cc="http://creativecommons.org/ns#" xmlns:rdf="http://www.w3.org/1999/02/22-rdf-syntax-ns#">
   <cc:Work>
    <dc:type rdf:resource="http://purl.org/dc/dcmitype/StillImage"/>
    <dc:date>2023-05-13T00:16:19.596171</dc:date>
    <dc:format>image/svg+xml</dc:format>
    <dc:creator>
     <cc:Agent>
      <dc:title>Matplotlib v3.5.1, https://matplotlib.org/</dc:title>
     </cc:Agent>
    </dc:creator>
   </cc:Work>
  </rdf:RDF>
 </metadata>
 <defs>
  <style type="text/css">*{stroke-linejoin: round; stroke-linecap: butt}</style>
 </defs>
 <g id="figure_1">
  <g id="patch_1">
   <path d="M 0 401.804405 
L 712.8 401.804405 
L 712.8 -0 
L 0 -0 
z
" style="fill: #ffffff; opacity: 0.2"/>
  </g>
  <g id="axes_1">
   <g id="patch_2">
    <path d="M 64.420435 353.304897 
L 345.835756 353.304897 
L 345.835756 80.041402 
L 64.420435 80.041402 
z
" style="fill: #ffffff"/>
   </g>
   <g id="matplotlib.axis_1">
    <g id="xtick_1">
     <g id="line2d_1">
      <defs>
       <path id="mbc4f3f816a" d="M 0 0 
L 0 3.5 
" style="stroke: #000000; stroke-width: 0.8"/>
      </defs>
      <g>
       <use xlink:href="#mbc4f3f816a" x="64.420435" y="353.304897" style="stroke: #000000; stroke-width: 0.8"/>
      </g>
     </g>
     <g id="text_1">
      <!-- 0 -->
      <g transform="translate(61.006191 369.990773)scale(0.14 -0.14)">
       <defs>
        <path id="CMR17-30" d="M 2688 2038 
C 2688 2430 2682 3099 2413 3613 
C 2176 4063 1798 4224 1466 4224 
C 1158 4224 768 4082 525 3620 
C 269 3137 243 2539 243 2038 
C 243 1671 250 1112 448 623 
C 723 -39 1216 -128 1466 -128 
C 1760 -128 2208 -7 2470 604 
C 2662 1048 2688 1568 2688 2038 
z
M 1466 -26 
C 1056 -26 813 328 723 816 
C 653 1196 653 1749 653 2109 
C 653 2604 653 3015 736 3407 
C 858 3954 1216 4121 1466 4121 
C 1728 4121 2067 3947 2189 3420 
C 2272 3054 2278 2623 2278 2109 
C 2278 1691 2278 1176 2202 797 
C 2067 96 1690 -26 1466 -26 
z
" transform="scale(0.015625)"/>
       </defs>
       <use xlink:href="#CMR17-30" transform="scale(0.996264)"/>
      </g>
     </g>
    </g>
    <g id="xtick_2">
     <g id="line2d_2">
      <g>
       <use xlink:href="#mbc4f3f816a" x="121.272015" y="353.304897" style="stroke: #000000; stroke-width: 0.8"/>
      </g>
     </g>
     <g id="text_2">
      <!-- 2 -->
      <g transform="translate(117.857771 369.990773)scale(0.14 -0.14)">
       <defs>
        <path id="CMR17-32" d="M 2669 990 
L 2554 990 
C 2490 537 2438 460 2413 422 
C 2381 371 1920 371 1830 371 
L 602 371 
C 832 620 1280 1073 1824 1596 
C 2214 1966 2669 2400 2669 3033 
C 2669 3788 2067 4224 1395 4224 
C 691 4224 262 3603 262 3027 
C 262 2777 448 2745 525 2745 
C 589 2745 781 2783 781 3007 
C 781 3206 614 3264 525 3264 
C 486 3264 448 3257 422 3244 
C 544 3788 915 4057 1306 4057 
C 1862 4057 2227 3616 2227 3033 
C 2227 2477 1901 1998 1536 1583 
L 262 147 
L 262 0 
L 2515 0 
L 2669 990 
z
" transform="scale(0.015625)"/>
       </defs>
       <use xlink:href="#CMR17-32" transform="scale(0.996264)"/>
      </g>
     </g>
    </g>
    <g id="xtick_3">
     <g id="line2d_3">
      <g>
       <use xlink:href="#mbc4f3f816a" x="178.123595" y="353.304897" style="stroke: #000000; stroke-width: 0.8"/>
      </g>
     </g>
     <g id="text_3">
      <!-- 4 -->
      <g transform="translate(174.709351 369.990773)scale(0.14 -0.14)">
       <defs>
        <path id="CMR17-34" d="M 2150 4147 
C 2150 4281 2144 4288 2029 4288 
L 128 1254 
L 128 1088 
L 1779 1088 
L 1779 460 
C 1779 230 1766 166 1318 166 
L 1197 166 
L 1197 0 
C 1402 12 1747 12 1965 12 
C 2182 12 2528 12 2733 0 
L 2733 166 
L 2611 166 
C 2163 166 2150 230 2150 460 
L 2150 1088 
L 2803 1088 
L 2803 1254 
L 2150 1254 
L 2150 4147 
z
M 1798 3723 
L 1798 1254 
L 256 1254 
L 1798 3723 
z
" transform="scale(0.015625)"/>
       </defs>
       <use xlink:href="#CMR17-34" transform="scale(0.996264)"/>
      </g>
     </g>
    </g>
    <g id="xtick_4">
     <g id="line2d_4">
      <g>
       <use xlink:href="#mbc4f3f816a" x="234.975175" y="353.304897" style="stroke: #000000; stroke-width: 0.8"/>
      </g>
     </g>
     <g id="text_4">
      <!-- 6 -->
      <g transform="translate(231.56093 369.990773)scale(0.14 -0.14)">
       <defs>
        <path id="CMR17-36" d="M 678 2198 
C 678 3712 1395 4076 1811 4076 
C 1946 4076 2272 4049 2400 3782 
C 2298 3782 2106 3782 2106 3558 
C 2106 3385 2246 3328 2336 3328 
C 2394 3328 2566 3353 2566 3571 
C 2566 3987 2246 4224 1805 4224 
C 1043 4224 243 3411 243 2011 
C 243 257 966 -128 1478 -128 
C 2099 -128 2688 431 2688 1295 
C 2688 2101 2170 2688 1517 2688 
C 1126 2688 838 2430 678 1979 
L 678 2198 
z
M 1478 25 
C 691 25 691 1212 691 1450 
C 691 1914 909 2585 1504 2585 
C 1613 2585 1926 2585 2138 2140 
C 2253 1889 2253 1624 2253 1302 
C 2253 954 2253 696 2118 438 
C 1978 173 1773 25 1478 25 
z
" transform="scale(0.015625)"/>
       </defs>
       <use xlink:href="#CMR17-36" transform="scale(0.996264)"/>
      </g>
     </g>
    </g>
    <g id="xtick_5">
     <g id="line2d_5">
      <g>
       <use xlink:href="#mbc4f3f816a" x="291.826755" y="353.304897" style="stroke: #000000; stroke-width: 0.8"/>
      </g>
     </g>
     <g id="text_5">
      <!-- 8 -->
      <g transform="translate(288.41251 369.990773)scale(0.14 -0.14)">
       <defs>
        <path id="CMR17-38" d="M 1741 2289 
C 2144 2494 2554 2803 2554 3298 
C 2554 3884 1990 4224 1472 4224 
C 890 4224 378 3800 378 3215 
C 378 3054 416 2777 666 2533 
C 730 2469 998 2276 1171 2154 
C 883 2006 211 1652 211 945 
C 211 282 838 -128 1459 -128 
C 2144 -128 2720 366 2720 1022 
C 2720 1607 2330 1877 2074 2051 
L 1741 2289 
z
M 902 2855 
C 851 2887 595 3086 595 3388 
C 595 3781 998 4076 1459 4076 
C 1965 4076 2336 3716 2336 3298 
C 2336 2700 1670 2359 1638 2359 
C 1632 2359 1626 2359 1574 2398 
L 902 2855 
z
M 2080 1536 
C 2176 1466 2483 1253 2483 861 
C 2483 385 2010 25 1472 25 
C 890 25 448 443 448 951 
C 448 1459 838 1884 1280 2083 
L 2080 1536 
z
" transform="scale(0.015625)"/>
       </defs>
       <use xlink:href="#CMR17-38" transform="scale(0.996264)"/>
      </g>
     </g>
    </g>
    <g id="xtick_6">
     <g id="line2d_6">
      <g>
       <use xlink:href="#mbc4f3f816a" x="345.835756" y="353.304897" style="stroke: #000000; stroke-width: 0.8"/>
      </g>
     </g>
     <g id="text_6">
      <!-- 10 -->
      <g transform="translate(339.007267 369.990773)scale(0.14 -0.14)">
       <defs>
        <path id="CMR17-31" d="M 1702 4083 
C 1702 4217 1696 4224 1606 4224 
C 1357 3927 979 3833 621 3820 
C 602 3820 570 3820 563 3808 
C 557 3795 557 3782 557 3648 
C 755 3648 1088 3686 1344 3839 
L 1344 467 
C 1344 243 1331 166 781 166 
L 589 166 
L 589 0 
C 896 6 1216 12 1523 12 
C 1830 12 2150 6 2458 0 
L 2458 166 
L 2266 166 
C 1715 166 1702 236 1702 467 
L 1702 4083 
z
" transform="scale(0.015625)"/>
       </defs>
       <use xlink:href="#CMR17-31" transform="scale(0.996264)"/>
       <use xlink:href="#CMR17-30" transform="translate(45.690477 0)scale(0.996264)"/>
      </g>
     </g>
    </g>
    <g id="text_7">
     <!-- Space [$\mu \mathrm{m}$] -->
     <g transform="translate(165.178769 390.136221)scale(0.18 -0.18)">
      <defs>
       <path id="CMR17-53" d="M 2803 4351 
C 2803 4467 2797 4473 2758 4473 
C 2720 4473 2707 4447 2682 4390 
L 2490 3965 
C 2246 4320 1875 4480 1472 4480 
C 819 4480 294 3958 294 3301 
C 294 3101 339 2817 557 2546 
C 794 2250 1018 2198 1530 2063 
C 1722 2011 2042 1927 2106 1901 
C 2470 1747 2662 1360 2662 999 
C 2662 534 2336 38 1779 38 
C 1094 38 454 425 410 1328 
C 403 1431 397 1437 352 1437 
C 301 1437 294 1431 294 1302 
L 294 0 
C 294 -116 301 -122 339 -122 
C 384 -122 397 -90 486 109 
C 493 128 493 141 614 386 
C 934 -39 1472 -128 1779 -128 
C 2477 -128 2970 457 2970 1141 
C 2970 1476 2848 1734 2778 1850 
C 2509 2263 2221 2340 1914 2417 
C 1869 2437 1856 2437 1498 2527 
C 1152 2617 1005 2662 845 2836 
C 666 3036 602 3243 602 3449 
C 602 3868 934 4326 1478 4326 
C 2157 4326 2579 3842 2675 3036 
C 2694 2920 2701 2914 2746 2914 
C 2803 2914 2803 2933 2803 3043 
L 2803 4351 
z
" transform="scale(0.015625)"/>
       <path id="CMR17-70" d="M 1408 -1114 
C 998 -1114 973 -1088 973 -834 
L 973 380 
C 1158 109 1427 -64 1766 -64 
C 2406 -64 3053 503 3053 1382 
C 3053 2196 2496 2816 1837 2816 
C 1453 2816 1139 2603 960 2345 
L 960 2816 
L 198 2745 
L 198 2577 
C 576 2577 634 2539 634 2228 
L 634 -834 
C 634 -1081 608 -1114 198 -1114 
L 198 -1280 
C 352 -1268 634 -1268 800 -1268 
C 966 -1268 1254 -1268 1408 -1280 
L 1408 -1114 
z
M 973 2015 
C 973 2106 973 2241 1222 2481 
C 1254 2506 1472 2700 1792 2700 
C 2259 2700 2643 2112 2643 1376 
C 2643 639 2234 38 1728 38 
C 1498 38 1248 148 1056 451 
C 973 594 973 632 973 736 
L 973 2015 
z
" transform="scale(0.015625)"/>
       <path id="CMR17-61" d="M 2304 1656 
C 2304 2048 2304 2275 2035 2534 
C 1798 2751 1523 2816 1306 2816 
C 800 2816 435 2408 435 1977 
C 435 1740 627 1728 666 1728 
C 749 1728 896 1779 896 1958 
C 896 2118 774 2188 666 2188 
C 640 2188 608 2182 589 2176 
C 723 2594 1069 2713 1293 2713 
C 1613 2713 1965 2421 1965 1875 
L 1965 1632 
C 1587 1619 1133 1568 774 1373 
C 371 1147 256 822 256 576 
C 256 77 832 -64 1171 -64 
C 1523 -64 1850 135 1990 505 
C 2003 219 2182 -39 2464 -39 
C 2598 -39 2938 51 2938 563 
L 2938 926 
L 2822 926 
L 2822 557 
C 2822 161 2650 109 2566 109 
C 2304 109 2304 446 2304 732 
L 2304 1656 
z
M 1965 887 
C 1965 323 1568 38 1216 38 
C 896 38 646 278 646 576 
C 646 771 730 1114 1101 1322 
C 1408 1497 1760 1523 1965 1536 
L 1965 887 
z
" transform="scale(0.015625)"/>
       <path id="CMR17-63" d="M 2234 2240 
C 2112 2240 1933 2240 1933 2015 
C 1933 1836 2080 1785 2163 1785 
C 2208 1785 2394 1804 2394 2028 
C 2394 2476 1958 2816 1466 2816 
C 787 2816 211 2201 211 1379 
C 211 521 813 -64 1466 -64 
C 2259 -64 2458 676 2458 747 
C 2458 773 2451 792 2406 792 
C 2362 792 2355 786 2330 702 
C 2163 180 1798 51 1523 51 
C 1114 51 621 431 621 1385 
C 621 2358 1094 2700 1472 2700 
C 1722 2700 2093 2582 2234 2240 
z
" transform="scale(0.015625)"/>
       <path id="CMR17-65" d="M 2438 1503 
C 2464 1529 2464 1542 2464 1606 
C 2464 2251 2118 2816 1389 2816 
C 710 2816 173 2175 173 1394 
C 173 554 781 -64 1459 -64 
C 2176 -64 2458 619 2458 755 
C 2458 800 2419 800 2406 800 
C 2362 800 2355 787 2330 709 
C 2189 270 1837 51 1504 51 
C 1229 51 954 206 781 490 
C 582 819 582 1200 582 1503 
L 2438 1503 
z
M 589 1600 
C 634 2511 1126 2713 1382 2713 
C 1818 2713 2112 2308 2118 1600 
L 589 1600 
z
" transform="scale(0.015625)"/>
       <path id="CMR17-5b" d="M 1504 -1600 
L 1504 -1376 
L 902 -1376 
L 902 4575 
L 1504 4575 
L 1504 4800 
L 678 4800 
L 678 -1600 
L 1504 -1600 
z
" transform="scale(0.015625)"/>
       <path id="CMMI12-16" d="M 922 140 
C 1082 -7 1318 -64 1536 -64 
C 1946 -64 2227 210 2374 408 
C 2438 70 2707 -64 2931 -64 
C 3123 -64 3277 51 3392 281 
C 3494 498 3584 887 3584 913 
C 3584 944 3558 970 3520 970 
C 3462 970 3456 938 3430 842 
C 3334 466 3213 64 2950 64 
C 2765 64 2752 229 2752 357 
C 2752 504 2810 734 2854 925 
L 3034 1615 
C 3059 1736 3130 2023 3162 2138 
C 3200 2291 3270 2566 3270 2591 
C 3270 2687 3194 2752 3098 2752 
C 3040 2752 2906 2726 2854 2534 
L 2406 759 
C 2374 632 2374 619 2291 517 
C 2214 408 1965 64 1562 64 
C 1203 64 1088 325 1088 625 
C 1088 811 1146 1034 1171 1143 
L 1459 2292 
C 1491 2413 1542 2617 1542 2656 
C 1542 2758 1459 2816 1376 2816 
C 1318 2816 1178 2796 1126 2592 
L 198 -1085 
C 192 -1116 179 -1154 179 -1191 
C 179 -1287 256 -1351 352 -1351 
C 538 -1351 576 -1204 621 -1029 
L 922 140 
z
" transform="scale(0.015625)"/>
       <path id="CMR17-6d" d="M 4326 1954 
C 4326 2276 4269 2816 3507 2816 
C 3072 2816 2771 2520 2656 2173 
L 2650 2173 
C 2573 2700 2195 2816 1837 2816 
C 1331 2816 1069 2424 973 2166 
L 966 2166 
L 966 2816 
L 211 2745 
L 211 2578 
C 589 2578 646 2540 646 2231 
L 646 443 
C 646 198 621 166 211 166 
L 211 0 
C 365 12 646 12 813 12 
C 979 12 1267 12 1421 0 
L 1421 166 
C 1011 166 986 192 986 443 
L 986 1678 
C 986 2269 1344 2713 1792 2713 
C 2266 2713 2317 2289 2317 1980 
L 2317 443 
C 2317 198 2291 166 1882 166 
L 1882 0 
C 2035 12 2317 12 2483 12 
C 2650 12 2938 12 3091 0 
L 3091 166 
C 2682 166 2656 192 2656 443 
L 2656 1678 
C 2656 2269 3014 2713 3462 2713 
C 3936 2713 3987 2289 3987 1980 
L 3987 443 
C 3987 198 3962 166 3552 166 
L 3552 0 
C 3706 12 3987 12 4154 12 
C 4320 12 4608 12 4762 0 
L 4762 166 
C 4352 166 4326 192 4326 443 
L 4326 1954 
z
" transform="scale(0.015625)"/>
       <path id="CMR17-5d" d="M 915 4800 
L 90 4800 
L 90 4575 
L 691 4575 
L 691 -1376 
L 90 -1376 
L 90 -1600 
L 915 -1600 
L 915 4800 
z
" transform="scale(0.015625)"/>
      </defs>
      <use xlink:href="#CMR17-53" transform="scale(0.996264)"/>
      <use xlink:href="#CMR17-70" transform="translate(50.89537 0)scale(0.996264)"/>
      <use xlink:href="#CMR17-61" transform="translate(101.79074 0)scale(0.996264)"/>
      <use xlink:href="#CMR17-63" transform="translate(147.481217 0)scale(0.996264)"/>
      <use xlink:href="#CMR17-65" transform="translate(187.966877 0)scale(0.996264)"/>
      <use xlink:href="#CMR17-5b" transform="translate(258.528504 0)scale(0.996264)"/>
      <use xlink:href="#CMMI12-16" transform="translate(283.399562 0)scale(0.996264)"/>
      <use xlink:href="#CMR17-6d" transform="translate(342.090984 0)scale(0.996264)"/>
      <use xlink:href="#CMR17-5d" transform="translate(419.010574 0)scale(0.996264)"/>
     </g>
    </g>
   </g>
   <g id="matplotlib.axis_2">
    <g id="ytick_1">
     <g id="line2d_7">
      <defs>
       <path id="m31c540f6fc" d="M 0 0 
L -3.5 0 
" style="stroke: #000000; stroke-width: 0.8"/>
      </defs>
      <g>
       <use xlink:href="#m31c540f6fc" x="64.420435" y="353.304897" style="stroke: #000000; stroke-width: 0.8"/>
      </g>
     </g>
     <g id="text_8">
      <!-- 0.0 -->
      <g style="fill: #d44842" transform="translate(39.969853 358.147835)scale(0.14 -0.14)">
       <defs>
        <path id="CMR17-2e" d="M 1062 262 
C 1062 422 934 524 800 524 
C 672 524 538 422 538 262 
C 538 102 666 0 800 0 
C 928 0 1062 102 1062 262 
z
" transform="scale(0.015625)"/>
       </defs>
       <use xlink:href="#CMR17-30" transform="scale(0.996264)"/>
       <use xlink:href="#CMR17-2e" transform="translate(45.690477 0)scale(0.996264)"/>
       <use xlink:href="#CMR17-30" transform="translate(70.561536 0)scale(0.996264)"/>
      </g>
     </g>
    </g>
    <g id="ytick_2">
     <g id="line2d_8">
      <g>
       <use xlink:href="#m31c540f6fc" x="64.420435" y="301.254707" style="stroke: #000000; stroke-width: 0.8"/>
      </g>
     </g>
     <g id="text_9">
      <!-- 0.02 -->
      <g style="fill: #d44842" transform="translate(33.141364 306.097645)scale(0.14 -0.14)">
       <use xlink:href="#CMR17-30" transform="scale(0.996264)"/>
       <use xlink:href="#CMR17-2e" transform="translate(45.690477 0)scale(0.996264)"/>
       <use xlink:href="#CMR17-30" transform="translate(70.561536 0)scale(0.996264)"/>
       <use xlink:href="#CMR17-32" transform="translate(116.252013 0)scale(0.996264)"/>
      </g>
     </g>
    </g>
    <g id="ytick_3">
     <g id="line2d_9">
      <g>
       <use xlink:href="#m31c540f6fc" x="64.420435" y="249.204518" style="stroke: #000000; stroke-width: 0.8"/>
      </g>
     </g>
     <g id="text_10">
      <!-- 0.04 -->
      <g style="fill: #d44842" transform="translate(33.141364 254.047456)scale(0.14 -0.14)">
       <use xlink:href="#CMR17-30" transform="scale(0.996264)"/>
       <use xlink:href="#CMR17-2e" transform="translate(45.690477 0)scale(0.996264)"/>
       <use xlink:href="#CMR17-30" transform="translate(70.561536 0)scale(0.996264)"/>
       <use xlink:href="#CMR17-34" transform="translate(116.252013 0)scale(0.996264)"/>
      </g>
     </g>
    </g>
    <g id="ytick_4">
     <g id="line2d_10">
      <g>
       <use xlink:href="#m31c540f6fc" x="64.420435" y="197.154328" style="stroke: #000000; stroke-width: 0.8"/>
      </g>
     </g>
     <g id="text_11">
      <!-- 0.06 -->
      <g style="fill: #d44842" transform="translate(33.141364 201.997267)scale(0.14 -0.14)">
       <use xlink:href="#CMR17-30" transform="scale(0.996264)"/>
       <use xlink:href="#CMR17-2e" transform="translate(45.690477 0)scale(0.996264)"/>
       <use xlink:href="#CMR17-30" transform="translate(70.561536 0)scale(0.996264)"/>
       <use xlink:href="#CMR17-36" transform="translate(116.252013 0)scale(0.996264)"/>
      </g>
     </g>
    </g>
    <g id="ytick_5">
     <g id="line2d_11">
      <g>
       <use xlink:href="#m31c540f6fc" x="64.420435" y="145.104139" style="stroke: #000000; stroke-width: 0.8"/>
      </g>
     </g>
     <g id="text_12">
      <!-- 0.08 -->
      <g style="fill: #d44842" transform="translate(33.141364 149.947077)scale(0.14 -0.14)">
       <use xlink:href="#CMR17-30" transform="scale(0.996264)"/>
       <use xlink:href="#CMR17-2e" transform="translate(45.690477 0)scale(0.996264)"/>
       <use xlink:href="#CMR17-30" transform="translate(70.561536 0)scale(0.996264)"/>
       <use xlink:href="#CMR17-38" transform="translate(116.252013 0)scale(0.996264)"/>
      </g>
     </g>
    </g>
    <g id="ytick_6">
     <g id="line2d_12">
      <g>
       <use xlink:href="#m31c540f6fc" x="64.420435" y="93.053949" style="stroke: #000000; stroke-width: 0.8"/>
      </g>
     </g>
     <g id="text_13">
      <!-- 0.1 -->
      <g style="fill: #d44842" transform="translate(39.969853 97.896888)scale(0.14 -0.14)">
       <use xlink:href="#CMR17-30" transform="scale(0.996264)"/>
       <use xlink:href="#CMR17-2e" transform="translate(45.690477 0)scale(0.996264)"/>
       <use xlink:href="#CMR17-31" transform="translate(70.561536 0)scale(0.996264)"/>
      </g>
     </g>
    </g>
    <g id="text_14">
     <!-- Bacterial density -->
     <g style="fill: #d44842" transform="translate(19.6533 277.138763)rotate(-90)scale(0.18 -0.18)">
      <defs>
       <path id="CMR17-42" d="M 333 4352 
L 333 4185 
C 774 4185 845 4185 845 3897 
L 845 451 
C 845 166 774 166 333 166 
L 333 0 
L 2534 0 
C 3354 0 3885 578 3885 1155 
C 3885 1726 3360 2214 2675 2259 
C 3290 2380 3718 2790 3718 3276 
C 3718 3808 3194 4352 2368 4352 
L 333 4352 
z
M 1248 2304 
L 1248 3936 
C 1248 4153 1261 4185 1517 4185 
L 2336 4185 
C 2970 4185 3251 3673 3251 3276 
C 3251 2790 2861 2304 2170 2304 
L 1248 2304 
z
M 1517 166 
C 1261 166 1248 198 1248 413 
L 1248 2201 
L 2432 2201 
C 3091 2201 3411 1624 3411 1161 
C 3411 698 3046 166 2349 166 
L 1517 166 
z
" transform="scale(0.015625)"/>
       <path id="CMR17-74" d="M 966 2585 
L 1862 2585 
L 1862 2752 
L 966 2752 
L 966 3968 
L 851 3968 
C 838 3292 614 2700 70 2687 
L 70 2585 
L 627 2585 
L 627 778 
C 627 655 627 -64 1370 -64 
C 1747 -64 1965 308 1965 784 
L 1965 1151 
L 1850 1151 
L 1850 790 
C 1850 347 1677 51 1408 51 
C 1222 51 966 179 966 765 
L 966 2585 
z
" transform="scale(0.015625)"/>
       <path id="CMR17-72" d="M 960 1517 
C 960 2134 1222 2713 1702 2713 
C 1747 2713 1792 2707 1837 2687 
C 1837 2687 1696 2642 1696 2475 
C 1696 2321 1818 2257 1914 2257 
C 1990 2257 2131 2302 2131 2482 
C 2131 2687 1926 2816 1709 2816 
C 1222 2816 1011 2340 947 2115 
L 941 2115 
L 941 2816 
L 198 2745 
L 198 2578 
C 576 2578 634 2540 634 2231 
L 634 443 
C 634 198 608 166 198 166 
L 198 0 
C 352 12 646 12 813 12 
C 998 12 1325 12 1498 0 
L 1498 166 
C 1037 166 960 166 960 455 
L 960 1517 
z
" transform="scale(0.015625)"/>
       <path id="CMR17-69" d="M 992 3961 
C 992 4102 877 4224 730 4224 
C 589 4224 467 4108 467 3961 
C 467 3820 582 3699 730 3699 
C 870 3699 992 3814 992 3961 
z
M 243 2745 
L 243 2579 
C 602 2579 653 2540 653 2231 
L 653 443 
C 653 198 627 166 218 166 
L 218 0 
C 371 12 646 12 806 12 
C 960 12 1222 12 1370 0 
L 1370 166 
C 992 166 979 205 979 436 
L 979 2816 
L 243 2745 
z
" transform="scale(0.015625)"/>
       <path id="CMR17-6c" d="M 979 4416 
L 218 4345 
L 218 4179 
C 595 4179 653 4141 653 3835 
L 653 439 
C 653 198 627 166 218 166 
L 218 0 
C 371 12 653 12 813 12 
C 979 12 1261 12 1414 0 
L 1414 166 
C 1005 166 979 191 979 439 
L 979 4416 
z
" transform="scale(0.015625)"/>
       <path id="CMR17-64" d="M 1869 4345 
L 1869 4179 
C 2246 4179 2304 4141 2304 3843 
L 2304 2371 
C 2278 2403 2016 2816 1498 2816 
C 845 2816 211 2228 211 1376 
C 211 529 806 -64 1434 -64 
C 1978 -64 2259 361 2291 406 
L 2291 -64 
L 3066 -13 
L 3066 154 
C 2688 154 2630 193 2630 503 
L 2630 4416 
L 1869 4345 
z
M 2291 762 
C 2291 568 2176 393 2029 264 
C 1811 70 1594 38 1472 38 
C 1286 38 621 135 621 1369 
C 621 2636 1363 2713 1530 2713 
C 1824 2713 2061 2545 2208 2313 
C 2291 2177 2291 2157 2291 2041 
L 2291 762 
z
" transform="scale(0.015625)"/>
       <path id="CMR17-6e" d="M 2656 1954 
C 2656 2282 2592 2816 1837 2816 
C 1331 2816 1069 2424 973 2166 
L 966 2166 
L 966 2816 
L 211 2745 
L 211 2578 
C 589 2578 646 2540 646 2231 
L 646 443 
C 646 198 621 166 211 166 
L 211 0 
C 365 12 646 12 813 12 
C 979 12 1267 12 1421 0 
L 1421 166 
C 1011 166 986 192 986 443 
L 986 1678 
C 986 2269 1344 2713 1792 2713 
C 2266 2713 2317 2289 2317 1980 
L 2317 443 
C 2317 198 2291 166 1882 166 
L 1882 0 
C 2035 12 2317 12 2483 12 
C 2650 12 2938 12 3091 0 
L 3091 166 
C 2682 166 2656 192 2656 443 
L 2656 1954 
z
" transform="scale(0.015625)"/>
       <path id="CMR17-73" d="M 1978 2688 
C 1978 2803 1971 2809 1933 2809 
C 1907 2809 1901 2803 1824 2707 
C 1805 2681 1747 2617 1728 2592 
C 1523 2809 1235 2816 1126 2816 
C 416 2816 160 2444 160 2073 
C 160 1497 813 1363 998 1324 
C 1402 1241 1542 1216 1677 1100 
C 1760 1024 1901 883 1901 652 
C 1901 384 1747 38 1158 38 
C 602 38 403 460 288 1024 
C 269 1113 269 1120 218 1120 
C 166 1120 160 1113 160 985 
L 160 64 
C 160 -52 166 -58 205 -58 
C 237 -58 243 -52 275 0 
C 314 57 410 211 448 275 
C 576 102 800 -64 1158 -64 
C 1792 -64 2131 281 2131 780 
C 2131 1107 1958 1280 1875 1356 
C 1683 1555 1459 1600 1190 1651 
C 838 1728 390 1817 390 2208 
C 390 2374 480 2726 1126 2726 
C 1811 2726 1850 2086 1862 1881 
C 1869 1849 1901 1843 1920 1843 
C 1978 1843 1978 1862 1978 1971 
L 1978 2688 
z
" transform="scale(0.015625)"/>
       <path id="CMR17-79" d="M 2496 2183 
C 2656 2579 2944 2585 3034 2585 
L 3034 2752 
C 2912 2745 2752 2739 2630 2739 
C 2496 2739 2285 2739 2157 2752 
L 2157 2585 
C 2400 2566 2406 2384 2406 2332 
C 2406 2268 2394 2235 2362 2158 
L 1664 409 
L 902 2300 
C 870 2378 870 2423 870 2430 
C 870 2572 1018 2585 1171 2585 
L 1171 2752 
C 1018 2739 742 2739 582 2739 
C 410 2739 205 2739 64 2752 
L 64 2585 
C 410 2585 448 2553 531 2345 
L 1485 -31 
C 1197 -795 1030 -1242 627 -1242 
C 557 -1242 397 -1223 282 -1106 
C 429 -1093 493 -1002 493 -892 
C 493 -782 416 -685 288 -685 
C 147 -685 77 -782 77 -899 
C 77 -1158 339 -1344 627 -1344 
C 998 -1344 1229 -983 1357 -659 
L 2496 2183 
z
" transform="scale(0.015625)"/>
      </defs>
      <use xlink:href="#CMR17-42" transform="scale(0.996264)"/>
      <use xlink:href="#CMR17-61" transform="translate(65.188754 0)scale(0.996264)"/>
      <use xlink:href="#CMR17-63" transform="translate(110.879232 0)scale(0.996264)"/>
      <use xlink:href="#CMR17-74" transform="translate(151.364892 0)scale(0.996264)"/>
      <use xlink:href="#CMR17-65" transform="translate(186.64566 0)scale(0.996264)"/>
      <use xlink:href="#CMR17-72" transform="translate(227.13132 0)scale(0.996264)"/>
      <use xlink:href="#CMR17-69" transform="translate(262.412088 0)scale(0.996264)"/>
      <use xlink:href="#CMR17-61" transform="translate(287.283147 0)scale(0.996264)"/>
      <use xlink:href="#CMR17-6c" transform="translate(332.973624 0)scale(0.996264)"/>
      <use xlink:href="#CMR17-64" transform="translate(387.920649 0)scale(0.996264)"/>
      <use xlink:href="#CMR17-65" transform="translate(438.816018 0)scale(0.996264)"/>
      <use xlink:href="#CMR17-6e" transform="translate(479.301679 0)scale(0.996264)"/>
      <use xlink:href="#CMR17-73" transform="translate(530.197049 0)scale(0.996264)"/>
      <use xlink:href="#CMR17-69" transform="translate(565.998386 0)scale(0.996264)"/>
      <use xlink:href="#CMR17-74" transform="translate(590.869445 0)scale(0.996264)"/>
      <use xlink:href="#CMR17-79" transform="translate(623.547759 0)scale(0.996264)"/>
     </g>
    </g>
   </g>
   <g id="line2d_13">
    <path d="M 64.420435 147.84307 
L 67.263014 147.84307 
L 70.105593 147.901668 
L 72.948172 148.01886 
L 75.790751 148.194642 
L 78.63333 148.429006 
L 81.475909 148.72194 
L 84.318488 149.07343 
L 87.161067 149.483453 
L 90.003646 149.951984 
L 92.846225 150.478988 
L 95.688804 151.064421 
L 98.531383 151.708233 
L 101.373962 152.410357 
L 104.216541 153.170717 
L 107.05912 153.989222 
L 109.901699 154.865763 
L 112.744278 155.800217 
L 115.586857 156.792442 
L 118.429436 157.842278 
L 121.272015 158.949547 
L 124.114594 160.114055 
L 126.957173 161.335591 
L 129.799752 162.613935 
L 132.642331 163.948861 
L 135.48491 165.340149 
L 138.327489 166.787591 
L 141.170068 168.291014 
L 144.012647 169.8503 
L 146.855226 171.465417 
L 149.697805 173.136459 
L 152.540384 174.863703 
L 155.382963 176.647676 
L 158.225542 178.489246 
L 161.068121 180.389742 
L 163.9107 182.351105 
L 166.753279 184.376079 
L 169.595858 186.468461 
L 172.438437 188.633407 
L 175.281016 190.877826 
L 178.123595 193.210862 
L 180.966174 195.644502 
L 183.808753 198.194311 
L 186.651332 200.880331 
L 189.493911 203.728157 
L 192.33649 206.7702 
L 195.179069 210.047144 
L 198.021648 213.609561 
L 200.864227 217.519633 
L 203.706806 221.852826 
L 206.549385 226.699297 
L 209.391964 221.867948 
L 212.234543 217.552499 
L 215.077122 213.662288 
L 217.919701 210.121464 
L 220.76228 206.867548 
L 223.604859 203.849748 
L 226.447438 201.027214 
L 229.290017 198.367416 
L 232.132596 195.844673 
L 234.975175 193.438878 
L 237.817754 191.134422 
L 240.660333 188.919288 
L 243.502912 186.784309 
L 246.345491 184.722563 
L 249.18807 182.728884 
L 252.030649 180.79947 
L 254.873228 178.931577 
L 257.715807 177.123262 
L 260.558386 175.373201 
L 263.400965 173.680527 
L 266.243544 172.04472 
L 269.086123 170.465512 
L 271.928702 168.942814 
L 274.771281 167.476667 
L 277.61386 166.0672 
L 280.456439 164.714597 
L 283.299018 163.419076 
L 286.141597 162.180871 
L 288.984176 161.000221 
L 291.826755 159.877358 
L 294.669334 158.812508 
L 297.511913 157.805879 
L 300.354492 156.857664 
L 303.197071 155.968038 
L 306.03965 155.137158 
L 308.882229 154.365162 
L 311.724808 153.652174 
L 314.567387 152.998298 
L 317.409966 152.403626 
L 320.252545 151.868237 
L 323.095124 151.392194 
L 325.937703 150.975552 
L 328.780282 150.618357 
L 331.622861 150.320644 
L 334.46544 150.082442 
L 337.308019 149.903772 
L 340.150598 149.784651 
L 342.993177 149.725088 
L 345.835756 149.725088 
" clip-path="url(#pf624562d1a)" style="fill: none; stroke: #d44842; stroke-width: 2; stroke-linecap: square"/>
   </g>
   <g id="line2d_14">
    <path d="M 64.420435 93.053949 
L 345.835756 93.053949 
" clip-path="url(#pf624562d1a)" style="fill: none; stroke-dasharray: 3.7,1.6; stroke-dashoffset: 0; stroke: #000000"/>
   </g>
   <g id="patch_3">
    <path d="M 64.420435 353.304897 
L 64.420435 80.041402 
" style="fill: none; stroke: #000000; stroke-width: 0.8; stroke-linejoin: miter; stroke-linecap: square"/>
   </g>
   <g id="patch_4">
    <path d="M 345.835756 353.304897 
L 345.835756 80.041402 
" style="fill: none; stroke: #000000; stroke-width: 0.8; stroke-linejoin: miter; stroke-linecap: square"/>
   </g>
   <g id="patch_5">
    <path d="M 64.420435 353.304897 
L 345.835756 353.304897 
" style="fill: none; stroke: #000000; stroke-width: 0.8; stroke-linejoin: miter; stroke-linecap: square"/>
   </g>
   <g id="patch_6">
    <path d="M 64.420435 80.041402 
L 345.835756 80.041402 
" style="fill: none; stroke: #000000; stroke-width: 0.8; stroke-linejoin: miter; stroke-linecap: square"/>
   </g>
   <g id="text_15">
    <!-- Carrying capacity -->
    <g transform="translate(153.249237 107.944845)scale(0.14 -0.14)">
     <defs>
      <path id="CMR17-43" d="M 3974 4351 
C 3974 4467 3968 4473 3930 4473 
C 3904 4473 3898 4467 3853 4390 
L 3571 3849 
C 3258 4249 2874 4480 2381 4480 
C 1286 4480 294 3507 294 2179 
C 294 837 1286 -128 2387 -128 
C 3366 -128 3974 741 3974 1482 
C 3974 1547 3974 1573 3917 1573 
C 3866 1573 3866 1553 3859 1495 
C 3808 592 3168 38 2477 38 
C 1824 38 781 502 781 2179 
C 781 3862 1843 4313 2464 4313 
C 3187 4313 3712 3681 3834 2785 
C 3846 2707 3846 2695 3904 2695 
C 3974 2695 3974 2707 3974 2824 
L 3974 4351 
z
" transform="scale(0.015625)"/>
      <path id="CMR17-67" d="M 710 1165 
C 832 1068 1043 960 1299 960 
C 1805 960 2240 1359 2240 1895 
C 2240 2063 2189 2321 1997 2521 
C 2176 2713 2438 2777 2586 2777 
C 2611 2777 2650 2777 2682 2758 
C 2656 2751 2598 2726 2598 2623 
C 2598 2540 2656 2483 2739 2483 
C 2835 2483 2886 2547 2886 2630 
C 2886 2751 2790 2880 2586 2880 
C 2330 2880 2106 2758 1926 2591 
C 1734 2764 1504 2828 1299 2828 
C 794 2828 358 2431 358 1895 
C 358 1527 570 1294 634 1230 
C 442 1004 442 742 442 710 
C 442 544 506 300 723 166 
C 390 82 128 -184 128 -517 
C 128 -996 736 -1344 1466 -1344 
C 2170 -1344 2803 -1009 2803 -510 
C 2803 384 1856 384 1363 384 
C 1216 384 954 384 922 390 
C 723 422 589 601 589 825 
C 589 883 589 1024 710 1165 
z
M 1299 1068 
C 736 1068 736 1766 736 1895 
C 736 2024 736 2719 1299 2719 
C 1862 2719 1862 2024 1862 1895 
C 1862 1766 1862 1068 1299 1068 
z
M 1466 -1236 
C 826 -1236 384 -883 384 -517 
C 384 -311 493 -118 634 -11 
C 794 102 858 102 1293 102 
C 1818 102 2547 102 2547 -517 
C 2547 -883 2106 -1236 1466 -1236 
z
" transform="scale(0.015625)"/>
     </defs>
     <use xlink:href="#CMR17-43" transform="scale(0.996264)"/>
     <use xlink:href="#CMR17-61" transform="translate(66.509881 0)scale(0.996264)"/>
     <use xlink:href="#CMR17-72" transform="translate(112.200358 0)scale(0.996264)"/>
     <use xlink:href="#CMR17-72" transform="translate(147.481125 0)scale(0.996264)"/>
     <use xlink:href="#CMR17-79" transform="translate(182.761893 0)scale(0.996264)"/>
     <use xlink:href="#CMR17-69" transform="translate(231.054809 0)scale(0.996264)"/>
     <use xlink:href="#CMR17-6e" transform="translate(255.925868 0)scale(0.996264)"/>
     <use xlink:href="#CMR17-67" transform="translate(306.821237 0)scale(0.996264)"/>
     <use xlink:href="#CMR17-63" transform="translate(382.587681 0)scale(0.996264)"/>
     <use xlink:href="#CMR17-61" transform="translate(423.073341 0)scale(0.996264)"/>
     <use xlink:href="#CMR17-70" transform="translate(468.763818 0)scale(0.996264)"/>
     <use xlink:href="#CMR17-61" transform="translate(519.659188 0)scale(0.996264)"/>
     <use xlink:href="#CMR17-63" transform="translate(565.349665 0)scale(0.996264)"/>
     <use xlink:href="#CMR17-69" transform="translate(605.835326 0)scale(0.996264)"/>
     <use xlink:href="#CMR17-74" transform="translate(630.706384 0)scale(0.996264)"/>
     <use xlink:href="#CMR17-79" transform="translate(663.384698 0)scale(0.996264)"/>
    </g>
   </g>
   <g id="text_16">
    <!-- Injection at the center -->
    <g transform="translate(116.439286 70.041402)scale(0.2 -0.2)">
     <defs>
      <path id="CMR17-49" d="M 1261 3898 
C 1261 4185 1338 4185 1798 4185 
L 1798 4352 
C 1594 4339 1267 4339 1050 4339 
C 832 4339 506 4339 301 4352 
L 301 4185 
C 762 4185 838 4185 838 3898 
L 838 453 
C 838 166 762 166 301 166 
L 301 0 
C 506 12 832 12 1050 12 
C 1267 12 1594 12 1798 0 
L 1798 166 
C 1338 166 1261 166 1261 453 
L 1261 3898 
z
" transform="scale(0.015625)"/>
      <path id="CMR17-6a" d="M 1165 3961 
C 1165 4102 1050 4224 902 4224 
C 762 4224 640 4108 640 3961 
C 640 3820 755 3699 902 3699 
C 1043 3699 1165 3814 1165 3961 
z
M 365 2745 
L 365 2579 
C 787 2579 838 2533 838 2221 
L 838 -410 
C 838 -735 781 -1242 403 -1242 
C 358 -1242 186 -1236 45 -1145 
C 90 -1138 250 -1093 250 -911 
C 250 -787 166 -677 19 -677 
C -122 -677 -211 -774 -211 -917 
C -211 -1177 70 -1344 397 -1344 
C 838 -1344 1165 -937 1165 -384 
L 1165 2816 
L 365 2745 
z
" transform="scale(0.015625)"/>
      <path id="CMR17-6f" d="M 2758 1356 
C 2758 2176 2163 2816 1466 2816 
C 768 2816 173 2176 173 1356 
C 173 550 768 -64 1466 -64 
C 2163 -64 2758 550 2758 1356 
z
M 1466 51 
C 1165 51 909 230 762 480 
C 602 768 582 1126 582 1408 
C 582 1676 595 2009 762 2297 
C 890 2508 1139 2713 1466 2713 
C 1754 2713 1997 2553 2150 2329 
C 2349 2028 2349 1606 2349 1408 
C 2349 1158 2336 774 2163 467 
C 1984 172 1709 51 1466 51 
z
" transform="scale(0.015625)"/>
      <path id="CMR17-68" d="M 2656 1954 
C 2656 2282 2592 2816 1837 2816 
C 1312 2816 1056 2392 979 2179 
L 973 2179 
L 973 4416 
L 211 4345 
L 211 4179 
C 589 4179 646 4141 646 3843 
L 646 443 
C 646 198 621 166 211 166 
L 211 0 
C 365 12 646 12 813 12 
C 979 12 1267 12 1421 0 
L 1421 166 
C 1011 166 986 192 986 443 
L 986 1678 
C 986 2269 1344 2713 1792 2713 
C 2266 2713 2317 2289 2317 1980 
L 2317 443 
C 2317 198 2291 166 1882 166 
L 1882 0 
C 2035 12 2317 12 2483 12 
C 2650 12 2938 12 3091 0 
L 3091 166 
C 2682 166 2656 192 2656 443 
L 2656 1954 
z
" transform="scale(0.015625)"/>
     </defs>
     <use xlink:href="#CMR17-49" transform="scale(0.996264)"/>
     <use xlink:href="#CMR17-6e" transform="translate(32.638409 0)scale(0.996264)"/>
     <use xlink:href="#CMR17-6a" transform="translate(83.533779 0)scale(0.996264)"/>
     <use xlink:href="#CMR17-65" transform="translate(111.007291 0)scale(0.996264)"/>
     <use xlink:href="#CMR17-63" transform="translate(151.492952 0)scale(0.996264)"/>
     <use xlink:href="#CMR17-74" transform="translate(191.978612 0)scale(0.996264)"/>
     <use xlink:href="#CMR17-69" transform="translate(227.25938 0)scale(0.996264)"/>
     <use xlink:href="#CMR17-6f" transform="translate(252.130439 0)scale(0.996264)"/>
     <use xlink:href="#CMR17-6e" transform="translate(297.820916 0)scale(0.996264)"/>
     <use xlink:href="#CMR17-61" transform="translate(378.792252 0)scale(0.996264)"/>
     <use xlink:href="#CMR17-74" transform="translate(424.482729 0)scale(0.996264)"/>
     <use xlink:href="#CMR17-74" transform="translate(489.839463 0)scale(0.996264)"/>
     <use xlink:href="#CMR17-68" transform="translate(525.120231 0)scale(0.996264)"/>
     <use xlink:href="#CMR17-65" transform="translate(576.015601 0)scale(0.996264)"/>
     <use xlink:href="#CMR17-63" transform="translate(646.577227 0)scale(0.996264)"/>
     <use xlink:href="#CMR17-65" transform="translate(687.062888 0)scale(0.996264)"/>
     <use xlink:href="#CMR17-6e" transform="translate(727.548548 0)scale(0.996264)"/>
     <use xlink:href="#CMR17-74" transform="translate(775.841464 0)scale(0.996264)"/>
     <use xlink:href="#CMR17-65" transform="translate(811.122232 0)scale(0.996264)"/>
     <use xlink:href="#CMR17-72" transform="translate(851.607893 0)scale(0.996264)"/>
    </g>
   </g>
  </g>
  <g id="axes_2">
   <g id="patch_7">
    <path d="M 366.964244 353.304897 
L 648.379565 353.304897 
L 648.379565 80.041402 
L 366.964244 80.041402 
z
" style="fill: #ffffff"/>
   </g>
   <g id="matplotlib.axis_3">
    <g id="xtick_7">
     <g id="line2d_15">
      <g>
       <use xlink:href="#mbc4f3f816a" x="366.964244" y="353.304897" style="stroke: #000000; stroke-width: 0.8"/>
      </g>
     </g>
     <g id="text_17">
      <!-- 0 -->
      <g transform="translate(363.55 369.990773)scale(0.14 -0.14)">
       <use xlink:href="#CMR17-30" transform="scale(0.996264)"/>
      </g>
     </g>
    </g>
    <g id="xtick_8">
     <g id="line2d_16">
      <g>
       <use xlink:href="#mbc4f3f816a" x="423.815824" y="353.304897" style="stroke: #000000; stroke-width: 0.8"/>
      </g>
     </g>
     <g id="text_18">
      <!-- 2 -->
      <g transform="translate(420.40158 369.990773)scale(0.14 -0.14)">
       <use xlink:href="#CMR17-32" transform="scale(0.996264)"/>
      </g>
     </g>
    </g>
    <g id="xtick_9">
     <g id="line2d_17">
      <g>
       <use xlink:href="#mbc4f3f816a" x="480.667404" y="353.304897" style="stroke: #000000; stroke-width: 0.8"/>
      </g>
     </g>
     <g id="text_19">
      <!-- 4 -->
      <g transform="translate(477.25316 369.990773)scale(0.14 -0.14)">
       <use xlink:href="#CMR17-34" transform="scale(0.996264)"/>
      </g>
     </g>
    </g>
    <g id="xtick_10">
     <g id="line2d_18">
      <g>
       <use xlink:href="#mbc4f3f816a" x="537.518984" y="353.304897" style="stroke: #000000; stroke-width: 0.8"/>
      </g>
     </g>
     <g id="text_20">
      <!-- 6 -->
      <g transform="translate(534.10474 369.990773)scale(0.14 -0.14)">
       <use xlink:href="#CMR17-36" transform="scale(0.996264)"/>
      </g>
     </g>
    </g>
    <g id="xtick_11">
     <g id="line2d_19">
      <g>
       <use xlink:href="#mbc4f3f816a" x="594.370564" y="353.304897" style="stroke: #000000; stroke-width: 0.8"/>
      </g>
     </g>
     <g id="text_21">
      <!-- 8 -->
      <g transform="translate(590.95632 369.990773)scale(0.14 -0.14)">
       <use xlink:href="#CMR17-38" transform="scale(0.996264)"/>
      </g>
     </g>
    </g>
    <g id="xtick_12">
     <g id="line2d_20">
      <g>
       <use xlink:href="#mbc4f3f816a" x="648.379565" y="353.304897" style="stroke: #000000; stroke-width: 0.8"/>
      </g>
     </g>
     <g id="text_22">
      <!-- 10 -->
      <g transform="translate(641.551076 369.990773)scale(0.14 -0.14)">
       <use xlink:href="#CMR17-31" transform="scale(0.996264)"/>
       <use xlink:href="#CMR17-30" transform="translate(45.690477 0)scale(0.996264)"/>
      </g>
     </g>
    </g>
    <g id="text_23">
     <!-- Space [$\mu \mathrm{m}$] -->
     <g transform="translate(467.722578 390.136221)scale(0.18 -0.18)">
      <use xlink:href="#CMR17-53" transform="scale(0.996264)"/>
      <use xlink:href="#CMR17-70" transform="translate(50.89537 0)scale(0.996264)"/>
      <use xlink:href="#CMR17-61" transform="translate(101.79074 0)scale(0.996264)"/>
      <use xlink:href="#CMR17-63" transform="translate(147.481217 0)scale(0.996264)"/>
      <use xlink:href="#CMR17-65" transform="translate(187.966877 0)scale(0.996264)"/>
      <use xlink:href="#CMR17-5b" transform="translate(258.528504 0)scale(0.996264)"/>
      <use xlink:href="#CMMI12-16" transform="translate(283.399562 0)scale(0.996264)"/>
      <use xlink:href="#CMR17-6d" transform="translate(342.090984 0)scale(0.996264)"/>
      <use xlink:href="#CMR17-5d" transform="translate(419.010574 0)scale(0.996264)"/>
     </g>
    </g>
   </g>
   <g id="matplotlib.axis_4"/>
   <g id="line2d_21">
    <path d="M 366.964244 277.512821 
L 369.806823 277.512821 
L 372.649402 277.62557 
L 375.491981 277.853407 
L 378.33456 278.201059 
L 381.177139 278.675742 
L 384.019718 279.287303 
L 386.862297 280.0484 
L 389.704876 280.974704 
L 392.547455 282.08511 
L 395.390034 283.401921 
L 398.232613 280.254883 
L 401.075192 277.121912 
L 403.917771 274.002135 
L 406.76035 270.894607 
L 409.602929 267.798401 
L 412.445508 264.712675 
L 415.288087 261.636731 
L 418.130666 258.570045 
L 420.973245 255.512294 
L 423.815824 252.463371 
L 426.658403 249.423389 
L 429.500982 246.392673 
L 432.343561 243.371759 
L 435.18614 240.361376 
L 438.028719 237.362433 
L 440.871298 234.375999 
L 443.713877 231.403285 
L 446.556456 228.445628 
L 449.399035 225.504466 
L 452.241614 222.581324 
L 455.084193 219.677794 
L 457.926772 216.795516 
L 460.769351 213.936169 
L 463.61193 211.101445 
L 466.454509 208.293047 
L 469.297088 205.512668 
L 472.139667 202.761983 
L 474.982246 200.042638 
L 477.824825 197.356244 
L 480.667404 194.704362 
L 483.509983 192.088503 
L 486.352562 189.510117 
L 489.195141 186.97059 
L 492.03772 184.471239 
L 494.880299 182.013307 
L 497.722878 179.597962 
L 500.565457 177.226293 
L 503.408036 174.899309 
L 506.250615 172.617937 
L 509.093194 170.383022 
L 511.935773 168.195327 
L 514.778352 166.055534 
L 517.620931 163.964243 
L 520.46351 161.921976 
L 523.306089 159.929177 
L 526.148668 157.986213 
L 528.991247 156.093378 
L 531.833826 154.250896 
L 534.676405 152.458922 
L 537.518984 150.717548 
L 540.361563 149.026802 
L 543.204142 147.386656 
L 546.046721 145.797026 
L 548.8893 144.257778 
L 551.731879 142.768732 
L 554.574458 141.329663 
L 557.417037 139.940306 
L 560.259616 138.600363 
L 563.102195 137.309503 
L 565.944774 136.067365 
L 568.787353 134.873566 
L 571.629932 133.727702 
L 574.472511 132.629351 
L 577.31509 131.578077 
L 580.157669 130.573436 
L 583.000248 129.614973 
L 585.842827 128.702233 
L 588.685406 127.834757 
L 591.527985 127.01209 
L 594.370564 126.23378 
L 597.213143 125.499382 
L 600.055722 124.808463 
L 602.898301 124.160599 
L 605.74088 123.555381 
L 608.583459 122.992418 
L 611.426038 122.471333 
L 614.268617 121.991772 
L 617.111196 121.553402 
L 619.953775 121.155912 
L 622.796354 120.799013 
L 625.638933 120.482446 
L 628.481512 120.205975 
L 631.324091 119.969391 
L 634.16667 119.772516 
L 637.009249 119.615199 
L 639.851828 119.497317 
L 642.694407 119.418781 
L 645.536986 119.379528 
L 648.379565 119.379528 
" clip-path="url(#pb8e2d605f6)" style="fill: none; stroke: #d44842; stroke-width: 2; stroke-linecap: square"/>
   </g>
   <g id="line2d_22">
    <path d="M 366.964244 93.053949 
L 648.379565 93.053949 
" clip-path="url(#pb8e2d605f6)" style="fill: none; stroke-dasharray: 3.7,1.6; stroke-dashoffset: 0; stroke: #000000"/>
   </g>
   <g id="patch_8">
    <path d="M 366.964244 353.304897 
L 366.964244 80.041402 
" style="fill: none; stroke: #000000; stroke-width: 0.8; stroke-linejoin: miter; stroke-linecap: square"/>
   </g>
   <g id="patch_9">
    <path d="M 648.379565 353.304897 
L 648.379565 80.041402 
" style="fill: none; stroke: #000000; stroke-width: 0.8; stroke-linejoin: miter; stroke-linecap: square"/>
   </g>
   <g id="patch_10">
    <path d="M 366.964244 353.304897 
L 648.379565 353.304897 
" style="fill: none; stroke: #000000; stroke-width: 0.8; stroke-linejoin: miter; stroke-linecap: square"/>
   </g>
   <g id="patch_11">
    <path d="M 366.964244 80.041402 
L 648.379565 80.041402 
" style="fill: none; stroke: #000000; stroke-width: 0.8; stroke-linejoin: miter; stroke-linecap: square"/>
   </g>
   <g id="text_24">
    <!-- Carrying capacity -->
    <g transform="translate(455.793047 107.944845)scale(0.14 -0.14)">
     <use xlink:href="#CMR17-43" transform="scale(0.996264)"/>
     <use xlink:href="#CMR17-61" transform="translate(66.509881 0)scale(0.996264)"/>
     <use xlink:href="#CMR17-72" transform="translate(112.200358 0)scale(0.996264)"/>
     <use xlink:href="#CMR17-72" transform="translate(147.481125 0)scale(0.996264)"/>
     <use xlink:href="#CMR17-79" transform="translate(182.761893 0)scale(0.996264)"/>
     <use xlink:href="#CMR17-69" transform="translate(231.054809 0)scale(0.996264)"/>
     <use xlink:href="#CMR17-6e" transform="translate(255.925868 0)scale(0.996264)"/>
     <use xlink:href="#CMR17-67" transform="translate(306.821237 0)scale(0.996264)"/>
     <use xlink:href="#CMR17-63" transform="translate(382.587681 0)scale(0.996264)"/>
     <use xlink:href="#CMR17-61" transform="translate(423.073341 0)scale(0.996264)"/>
     <use xlink:href="#CMR17-70" transform="translate(468.763818 0)scale(0.996264)"/>
     <use xlink:href="#CMR17-61" transform="translate(519.659188 0)scale(0.996264)"/>
     <use xlink:href="#CMR17-63" transform="translate(565.349665 0)scale(0.996264)"/>
     <use xlink:href="#CMR17-69" transform="translate(605.835326 0)scale(0.996264)"/>
     <use xlink:href="#CMR17-74" transform="translate(630.706384 0)scale(0.996264)"/>
     <use xlink:href="#CMR17-79" transform="translate(663.384698 0)scale(0.996264)"/>
    </g>
   </g>
   <g id="text_25">
    <!-- Injection near the border -->
    <g transform="translate(407.763055 70.041402)scale(0.2 -0.2)">
     <defs>
      <path id="CMR17-62" d="M 960 4416 
L 198 4345 
L 198 4179 
C 576 4179 634 4141 634 3843 
L 634 -13 
L 749 -13 
L 934 445 
C 1120 141 1395 -64 1766 -64 
C 2406 -64 3053 503 3053 1382 
C 3053 2209 2477 2816 1830 2816 
C 1434 2816 1152 2603 960 2351 
L 960 4416 
z
M 973 2022 
C 973 2138 973 2157 1062 2293 
C 1312 2681 1670 2713 1792 2713 
C 1984 2713 2643 2610 2643 1388 
C 2643 109 1888 38 1734 38 
C 1536 38 1248 115 1043 490 
C 973 613 973 626 973 742 
L 973 2022 
z
" transform="scale(0.015625)"/>
     </defs>
     <use xlink:href="#CMR17-49" transform="scale(0.996264)"/>
     <use xlink:href="#CMR17-6e" transform="translate(32.638409 0)scale(0.996264)"/>
     <use xlink:href="#CMR17-6a" transform="translate(83.533779 0)scale(0.996264)"/>
     <use xlink:href="#CMR17-65" transform="translate(111.007291 0)scale(0.996264)"/>
     <use xlink:href="#CMR17-63" transform="translate(151.492952 0)scale(0.996264)"/>
     <use xlink:href="#CMR17-74" transform="translate(191.978612 0)scale(0.996264)"/>
     <use xlink:href="#CMR17-69" transform="translate(227.25938 0)scale(0.996264)"/>
     <use xlink:href="#CMR17-6f" transform="translate(252.130439 0)scale(0.996264)"/>
     <use xlink:href="#CMR17-6e" transform="translate(297.820916 0)scale(0.996264)"/>
     <use xlink:href="#CMR17-6e" transform="translate(378.792252 0)scale(0.996264)"/>
     <use xlink:href="#CMR17-65" transform="translate(429.687622 0)scale(0.996264)"/>
     <use xlink:href="#CMR17-61" transform="translate(470.173282 0)scale(0.996264)"/>
     <use xlink:href="#CMR17-72" transform="translate(515.863759 0)scale(0.996264)"/>
     <use xlink:href="#CMR17-74" transform="translate(581.220493 0)scale(0.996264)"/>
     <use xlink:href="#CMR17-68" transform="translate(616.501261 0)scale(0.996264)"/>
     <use xlink:href="#CMR17-65" transform="translate(667.396631 0)scale(0.996264)"/>
     <use xlink:href="#CMR17-62" transform="translate(737.958258 0)scale(0.996264)"/>
     <use xlink:href="#CMR17-6f" transform="translate(791.456066 0)scale(0.996264)"/>
     <use xlink:href="#CMR17-72" transform="translate(837.146543 0)scale(0.996264)"/>
     <use xlink:href="#CMR17-64" transform="translate(872.427311 0)scale(0.996264)"/>
     <use xlink:href="#CMR17-65" transform="translate(923.322681 0)scale(0.996264)"/>
     <use xlink:href="#CMR17-72" transform="translate(963.808341 0)scale(0.996264)"/>
    </g>
   </g>
  </g>
  <g id="axes_3">
   <g id="matplotlib.axis_5"/>
   <g id="line2d_23">
    <path d="M 64.420435 306.787837 
L 67.263014 306.787837 
L 70.105593 306.733391 
L 72.948172 306.624461 
L 75.790751 306.460969 
L 78.63333 306.242799 
L 81.475909 305.969798 
L 84.318488 305.641775 
L 87.161067 305.258499 
L 90.003646 304.819706 
L 92.846225 304.325095 
L 95.688804 303.774328 
L 98.531383 303.167036 
L 101.373962 302.502813 
L 104.216541 301.781224 
L 107.05912 301.0018 
L 109.901699 300.164046 
L 112.744278 299.267436 
L 115.586857 298.311418 
L 118.429436 297.295413 
L 121.272015 296.218822 
L 124.114594 295.081021 
L 126.957173 293.881368 
L 129.799752 292.619203 
L 132.642331 291.293849 
L 135.48491 289.904617 
L 138.327489 288.450806 
L 141.170068 286.931706 
L 144.012647 285.346601 
L 146.855226 283.694772 
L 149.697805 281.975497 
L 152.540384 280.188058 
L 155.382963 278.331741 
L 158.225542 276.405842 
L 161.068121 274.409666 
L 163.9107 272.342536 
L 166.753279 270.203794 
L 169.595858 267.992805 
L 172.438437 265.708967 
L 175.281016 263.35171 
L 178.123595 260.92051 
L 180.966174 258.414891 
L 183.808753 255.834439 
L 186.651332 253.178816 
L 189.493911 250.447768 
L 192.33649 247.641151 
L 195.179069 244.758948 
L 198.021648 241.801302 
L 200.864227 238.768548 
L 203.706806 235.661258 
L 206.549385 232.480294 
L 209.391964 235.631484 
L 212.234543 238.708992 
L 215.077122 241.711949 
L 217.919701 244.639774 
L 220.76228 247.492122 
L 223.604859 250.268843 
L 226.447438 252.969942 
L 229.290017 255.595551 
L 232.132596 258.145912 
L 234.975175 260.62135 
L 237.817754 263.022266 
L 240.660333 265.349117 
L 243.502912 267.602414 
L 246.345491 269.782706 
L 249.18807 271.890579 
L 252.030649 273.926647 
L 254.873228 275.891548 
L 257.715807 277.785936 
L 260.558386 279.610484 
L 263.400965 281.36587 
L 266.243544 283.052786 
L 269.086123 284.671922 
L 271.928702 286.223972 
L 274.771281 287.709629 
L 277.61386 289.129578 
L 280.456439 290.484501 
L 283.299018 291.775067 
L 286.141597 293.001934 
L 288.984176 294.165746 
L 291.826755 295.267129 
L 294.669334 296.306692 
L 297.511913 297.285024 
L 300.354492 298.202689 
L 303.197071 299.060228 
L 306.03965 299.858158 
L 308.882229 300.596966 
L 311.724808 301.277112 
L 314.567387 301.899024 
L 317.409966 302.463101 
L 320.252545 302.969706 
L 323.095124 303.419173 
L 325.937703 303.811797 
L 328.780282 304.14784 
L 331.622861 304.427529 
L 334.46544 304.651052 
L 337.308019 304.818561 
L 340.150598 304.93017 
L 342.993177 304.985955 
L 345.835756 304.985955 
" clip-path="url(#pf624562d1a)" style="fill: none; stroke: #65156e; stroke-width: 2; stroke-linecap: square"/>
   </g>
   <g id="patch_12">
    <path d="M 64.420435 353.304897 
L 64.420435 80.041402 
" style="fill: none; stroke: #000000; stroke-width: 0.8; stroke-linejoin: miter; stroke-linecap: square"/>
   </g>
   <g id="patch_13">
    <path d="M 345.835756 353.304897 
L 345.835756 80.041402 
" style="fill: none; stroke: #000000; stroke-width: 0.8; stroke-linejoin: miter; stroke-linecap: square"/>
   </g>
   <g id="patch_14">
    <path d="M 64.420435 353.304897 
L 345.835756 353.304897 
" style="fill: none; stroke: #000000; stroke-width: 0.8; stroke-linejoin: miter; stroke-linecap: square"/>
   </g>
   <g id="patch_15">
    <path d="M 64.420435 80.041402 
L 345.835756 80.041402 
" style="fill: none; stroke: #000000; stroke-width: 0.8; stroke-linejoin: miter; stroke-linecap: square"/>
   </g>
  </g>
  <g id="axes_4">
   <g id="matplotlib.axis_6">
    <g id="ytick_7">
     <g id="line2d_24">
      <defs>
       <path id="m6d1b5d7b98" d="M 0 0 
L 3.5 0 
" style="stroke: #000000; stroke-width: 0.8"/>
      </defs>
      <g>
       <use xlink:href="#m6d1b5d7b98" x="648.379565" y="353.304897" style="stroke: #000000; stroke-width: 0.8"/>
      </g>
     </g>
     <g id="text_26">
      <!-- 0.00 -->
      <g style="fill: #65156e" transform="translate(655.379565 358.147835)scale(0.14 -0.14)">
       <use xlink:href="#CMR17-30" transform="scale(0.996264)"/>
       <use xlink:href="#CMR17-2e" transform="translate(45.690477 0)scale(0.996264)"/>
       <use xlink:href="#CMR17-30" transform="translate(70.561536 0)scale(0.996264)"/>
       <use xlink:href="#CMR17-30" transform="translate(116.252013 0)scale(0.996264)"/>
      </g>
     </g>
    </g>
    <g id="ytick_8">
     <g id="line2d_25">
      <g>
       <use xlink:href="#m6d1b5d7b98" x="648.379565" y="284.989023" style="stroke: #000000; stroke-width: 0.8"/>
      </g>
     </g>
     <g id="text_27">
      <!-- 0.20 -->
      <g style="fill: #65156e" transform="translate(655.379565 289.831961)scale(0.14 -0.14)">
       <use xlink:href="#CMR17-30" transform="scale(0.996264)"/>
       <use xlink:href="#CMR17-2e" transform="translate(45.690477 0)scale(0.996264)"/>
       <use xlink:href="#CMR17-32" transform="translate(70.561536 0)scale(0.996264)"/>
       <use xlink:href="#CMR17-30" transform="translate(116.252013 0)scale(0.996264)"/>
      </g>
     </g>
    </g>
    <g id="ytick_9">
     <g id="line2d_26">
      <g>
       <use xlink:href="#m6d1b5d7b98" x="648.379565" y="216.673149" style="stroke: #000000; stroke-width: 0.8"/>
      </g>
     </g>
     <g id="text_28">
      <!-- 0.40 -->
      <g style="fill: #65156e" transform="translate(655.379565 221.516088)scale(0.14 -0.14)">
       <use xlink:href="#CMR17-30" transform="scale(0.996264)"/>
       <use xlink:href="#CMR17-2e" transform="translate(45.690477 0)scale(0.996264)"/>
       <use xlink:href="#CMR17-34" transform="translate(70.561536 0)scale(0.996264)"/>
       <use xlink:href="#CMR17-30" transform="translate(116.252013 0)scale(0.996264)"/>
      </g>
     </g>
    </g>
    <g id="ytick_10">
     <g id="line2d_27">
      <g>
       <use xlink:href="#m6d1b5d7b98" x="648.379565" y="148.357276" style="stroke: #000000; stroke-width: 0.8"/>
      </g>
     </g>
     <g id="text_29">
      <!-- 0.60 -->
      <g style="fill: #65156e" transform="translate(655.379565 153.200214)scale(0.14 -0.14)">
       <use xlink:href="#CMR17-30" transform="scale(0.996264)"/>
       <use xlink:href="#CMR17-2e" transform="translate(45.690477 0)scale(0.996264)"/>
       <use xlink:href="#CMR17-36" transform="translate(70.561536 0)scale(0.996264)"/>
       <use xlink:href="#CMR17-30" transform="translate(116.252013 0)scale(0.996264)"/>
      </g>
     </g>
    </g>
    <g id="ytick_11">
     <g id="line2d_28">
      <g>
       <use xlink:href="#m6d1b5d7b98" x="648.379565" y="80.041402" style="stroke: #000000; stroke-width: 0.8"/>
      </g>
     </g>
     <g id="text_30">
      <!-- 0.80 -->
      <g style="fill: #65156e" transform="translate(655.379565 84.88434)scale(0.14 -0.14)">
       <use xlink:href="#CMR17-30" transform="scale(0.996264)"/>
       <use xlink:href="#CMR17-2e" transform="translate(45.690477 0)scale(0.996264)"/>
       <use xlink:href="#CMR17-38" transform="translate(70.561536 0)scale(0.996264)"/>
       <use xlink:href="#CMR17-30" transform="translate(116.252013 0)scale(0.996264)"/>
      </g>
     </g>
    </g>
    <g id="text_31">
     <!-- Substance concentration -->
     <g style="fill: #65156e" transform="translate(702.111936 304.038492)rotate(-90)scale(0.18 -0.18)">
      <defs>
       <path id="CMR17-75" d="M 1882 2745 
L 1882 2579 
C 2259 2579 2317 2540 2317 2229 
L 2317 1053 
C 2317 510 2029 38 1555 38 
C 1030 38 986 355 986 691 
L 986 2816 
L 211 2745 
L 211 2579 
C 467 2579 640 2579 646 2320 
L 646 1079 
C 646 646 646 368 813 187 
C 896 103 1056 -64 1517 -64 
C 2061 -64 2272 400 2323 536 
L 2330 536 
L 2330 -64 
L 3091 -13 
L 3091 154 
C 2714 154 2656 193 2656 503 
L 2656 2816 
L 1882 2745 
z
" transform="scale(0.015625)"/>
      </defs>
      <use xlink:href="#CMR17-53" transform="scale(0.996264)"/>
      <use xlink:href="#CMR17-75" transform="translate(50.89537 0)scale(0.996264)"/>
      <use xlink:href="#CMR17-62" transform="translate(101.79074 0)scale(0.996264)"/>
      <use xlink:href="#CMR17-73" transform="translate(152.686109 0)scale(0.996264)"/>
      <use xlink:href="#CMR17-74" transform="translate(188.487447 0)scale(0.996264)"/>
      <use xlink:href="#CMR17-61" transform="translate(223.768215 0)scale(0.996264)"/>
      <use xlink:href="#CMR17-6e" transform="translate(269.458692 0)scale(0.996264)"/>
      <use xlink:href="#CMR17-63" transform="translate(320.354062 0)scale(0.996264)"/>
      <use xlink:href="#CMR17-65" transform="translate(360.839722 0)scale(0.996264)"/>
      <use xlink:href="#CMR17-63" transform="translate(431.401349 0)scale(0.996264)"/>
      <use xlink:href="#CMR17-6f" transform="translate(471.887009 0)scale(0.996264)"/>
      <use xlink:href="#CMR17-6e" transform="translate(517.577487 0)scale(0.996264)"/>
      <use xlink:href="#CMR17-63" transform="translate(568.472856 0)scale(0.996264)"/>
      <use xlink:href="#CMR17-65" transform="translate(608.958517 0)scale(0.996264)"/>
      <use xlink:href="#CMR17-6e" transform="translate(649.444177 0)scale(0.996264)"/>
      <use xlink:href="#CMR17-74" transform="translate(697.737093 0)scale(0.996264)"/>
      <use xlink:href="#CMR17-72" transform="translate(733.017861 0)scale(0.996264)"/>
      <use xlink:href="#CMR17-61" transform="translate(768.298629 0)scale(0.996264)"/>
      <use xlink:href="#CMR17-74" transform="translate(813.989106 0)scale(0.996264)"/>
      <use xlink:href="#CMR17-69" transform="translate(849.269874 0)scale(0.996264)"/>
      <use xlink:href="#CMR17-6f" transform="translate(874.140932 0)scale(0.996264)"/>
      <use xlink:href="#CMR17-6e" transform="translate(919.831409 0)scale(0.996264)"/>
     </g>
    </g>
   </g>
   <g id="line2d_29">
    <path d="M 366.964244 128.669953 
L 369.806823 128.669953 
L 372.649402 128.590531 
L 375.491981 128.431776 
L 378.33456 128.193863 
L 381.177139 127.877063 
L 384.019718 127.481746 
L 386.862297 127.00839 
L 389.704876 126.457592 
L 392.547455 125.830084 
L 395.390034 125.126746 
L 398.232613 130.753242 
L 401.075192 136.303353 
L 403.917771 141.775578 
L 406.76035 147.168515 
L 409.602929 152.480864 
L 412.445508 157.711422 
L 415.288087 162.859082 
L 418.130666 167.922837 
L 420.973245 172.901771 
L 423.815824 177.795062 
L 426.658403 182.601982 
L 429.500982 187.321894 
L 432.343561 191.954248 
L 435.18614 196.498588 
L 438.028719 200.954541 
L 440.871298 205.321824 
L 443.713877 209.600237 
L 446.556456 213.789666 
L 449.399035 217.890078 
L 452.241614 221.901521 
L 455.084193 225.824125 
L 457.926772 229.658094 
L 460.769351 233.403712 
L 463.61193 237.061333 
L 466.454509 240.631384 
L 469.297088 244.114361 
L 472.139667 247.51083 
L 474.982246 250.821416 
L 477.824825 254.046809 
L 480.667404 257.187757 
L 483.509983 260.245065 
L 486.352562 263.219589 
L 489.195141 266.112237 
L 492.03772 268.923961 
L 494.880299 271.65576 
L 497.722878 274.30867 
L 500.565457 276.883766 
L 503.408036 279.382156 
L 506.250615 281.804978 
L 509.093194 284.153397 
L 511.935773 286.428604 
L 514.778352 288.631806 
L 517.620931 290.764232 
L 520.46351 292.827122 
L 523.306089 294.821729 
L 526.148668 296.749311 
L 528.991247 298.611134 
L 531.833826 300.408465 
L 534.676405 302.14257 
L 537.518984 303.814711 
L 540.361563 305.426146 
L 543.204142 306.978122 
L 546.046721 308.471877 
L 548.8893 309.908635 
L 551.731879 311.289604 
L 554.574458 312.615976 
L 557.417037 313.888922 
L 560.259616 315.109593 
L 563.102195 316.279116 
L 565.944774 317.398595 
L 568.787353 318.469106 
L 571.629932 319.491699 
L 574.472511 320.467395 
L 577.31509 321.397182 
L 580.157669 322.282022 
L 583.000248 323.12284 
L 585.842827 323.920531 
L 588.685406 324.675953 
L 591.527985 325.389933 
L 594.370564 326.063258 
L 597.213143 326.696682 
L 600.055722 327.290921 
L 602.898301 327.846653 
L 605.74088 328.364519 
L 608.583459 328.845121 
L 611.426038 329.289023 
L 614.268617 329.696749 
L 617.111196 330.068785 
L 619.953775 330.405576 
L 622.796354 330.707528 
L 625.638933 330.975006 
L 628.481512 331.208336 
L 631.324091 331.407804 
L 634.16667 331.573652 
L 637.009249 331.706086 
L 639.851828 331.805269 
L 642.694407 331.871322 
L 645.536986 331.904329 
L 648.379565 331.904329 
" clip-path="url(#pb8e2d605f6)" style="fill: none; stroke: #65156e; stroke-width: 2; stroke-linecap: square"/>
   </g>
   <g id="patch_16">
    <path d="M 366.964244 353.304897 
L 366.964244 80.041402 
" style="fill: none; stroke: #000000; stroke-width: 0.8; stroke-linejoin: miter; stroke-linecap: square"/>
   </g>
   <g id="patch_17">
    <path d="M 648.379565 353.304897 
L 648.379565 80.041402 
" style="fill: none; stroke: #000000; stroke-width: 0.8; stroke-linejoin: miter; stroke-linecap: square"/>
   </g>
   <g id="patch_18">
    <path d="M 366.964244 353.304897 
L 648.379565 353.304897 
" style="fill: none; stroke: #000000; stroke-width: 0.8; stroke-linejoin: miter; stroke-linecap: square"/>
   </g>
   <g id="patch_19">
    <path d="M 366.964244 80.041402 
L 648.379565 80.041402 
" style="fill: none; stroke: #000000; stroke-width: 0.8; stroke-linejoin: miter; stroke-linecap: square"/>
   </g>
  </g>
  <g id="text_32">
   <!-- Time since injection 52.3 sec -->
   <g transform="translate(219.444832 23.804405)scale(0.24 -0.24)">
    <defs>
     <path id="CMR17-54" d="M 3981 4332 
L 288 4332 
L 179 2924 
L 294 2924 
C 378 3981 467 4166 1453 4166 
C 1568 4166 1754 4166 1805 4159 
C 1926 4140 1926 4064 1926 3917 
L 1926 465 
C 1926 236 1907 166 1376 166 
L 1197 166 
L 1197 0 
C 1504 6 1824 12 2138 12 
C 2451 12 2771 6 3078 0 
L 3078 166 
L 2899 166 
C 2368 166 2349 236 2349 465 
L 2349 3917 
C 2349 4057 2349 4134 2464 4159 
C 2515 4166 2701 4166 2816 4166 
C 3795 4166 3891 3981 3974 2924 
L 4090 2924 
L 3981 4332 
z
" transform="scale(0.015625)"/>
     <path id="CMR17-35" d="M 730 3750 
C 794 3724 1056 3641 1325 3641 
C 1920 3641 2246 3961 2432 4140 
C 2432 4191 2432 4224 2394 4224 
C 2387 4224 2374 4224 2323 4198 
C 2099 4102 1837 4032 1517 4032 
C 1325 4032 1037 4055 723 4191 
C 653 4224 640 4224 634 4224 
C 602 4224 595 4217 595 4090 
L 595 2231 
C 595 2113 595 2080 659 2080 
C 691 2080 704 2093 736 2139 
C 941 2435 1222 2560 1542 2560 
C 1766 2560 2246 2415 2246 1293 
C 2246 1087 2246 716 2054 422 
C 1894 159 1645 25 1370 25 
C 947 25 518 319 403 812 
C 429 806 480 793 506 793 
C 589 793 749 838 749 1036 
C 749 1209 627 1280 506 1280 
C 358 1280 262 1190 262 1011 
C 262 454 704 -128 1382 -128 
C 2042 -128 2669 441 2669 1267 
C 2669 2054 2170 2662 1549 2662 
C 1222 2662 947 2540 730 2304 
L 730 3750 
z
" transform="scale(0.015625)"/>
     <path id="CMR17-33" d="M 1414 2176 
C 1984 2176 2234 1673 2234 1094 
C 2234 322 1824 25 1453 25 
C 1114 25 563 193 390 691 
C 422 678 454 678 486 678 
C 640 678 755 780 755 947 
C 755 1132 614 1216 486 1216 
C 378 1216 211 1164 211 927 
C 211 335 787 -128 1466 -128 
C 2176 -128 2720 432 2720 1087 
C 2720 1718 2208 2176 1600 2246 
C 2086 2347 2554 2776 2554 3353 
C 2554 3856 2048 4224 1472 4224 
C 890 4224 378 3862 378 3347 
C 378 3123 544 3084 627 3084 
C 762 3084 877 3167 877 3334 
C 877 3500 762 3584 627 3584 
C 602 3584 570 3584 544 3571 
C 730 3999 1235 4076 1459 4076 
C 1683 4076 2106 3966 2106 3347 
C 2106 3167 2080 2851 1862 2574 
C 1670 2329 1453 2316 1242 2297 
C 1210 2297 1062 2284 1037 2284 
C 992 2278 966 2272 966 2227 
C 966 2182 973 2176 1101 2176 
L 1414 2176 
z
" transform="scale(0.015625)"/>
    </defs>
    <use xlink:href="#CMR17-54" transform="scale(0.996264)"/>
    <use xlink:href="#CMR17-69" transform="translate(66.509881 0)scale(0.996264)"/>
    <use xlink:href="#CMR17-6d" transform="translate(91.380939 0)scale(0.996264)"/>
    <use xlink:href="#CMR17-65" transform="translate(168.300529 0)scale(0.996264)"/>
    <use xlink:href="#CMR17-73" transform="translate(238.862156 0)scale(0.996264)"/>
    <use xlink:href="#CMR17-69" transform="translate(274.663493 0)scale(0.996264)"/>
    <use xlink:href="#CMR17-6e" transform="translate(299.534552 0)scale(0.996264)"/>
    <use xlink:href="#CMR17-63" transform="translate(350.429922 0)scale(0.996264)"/>
    <use xlink:href="#CMR17-65" transform="translate(390.915582 0)scale(0.996264)"/>
    <use xlink:href="#CMR17-69" transform="translate(461.477209 0)scale(0.996264)"/>
    <use xlink:href="#CMR17-6e" transform="translate(486.348267 0)scale(0.996264)"/>
    <use xlink:href="#CMR17-6a" transform="translate(537.243637 0)scale(0.996264)"/>
    <use xlink:href="#CMR17-65" transform="translate(564.71715 0)scale(0.996264)"/>
    <use xlink:href="#CMR17-63" transform="translate(605.20281 0)scale(0.996264)"/>
    <use xlink:href="#CMR17-74" transform="translate(645.68847 0)scale(0.996264)"/>
    <use xlink:href="#CMR17-69" transform="translate(680.969238 0)scale(0.996264)"/>
    <use xlink:href="#CMR17-6f" transform="translate(705.840297 0)scale(0.996264)"/>
    <use xlink:href="#CMR17-6e" transform="translate(751.530774 0)scale(0.996264)"/>
    <use xlink:href="#CMR17-35" transform="translate(832.50211 0)scale(0.996264)"/>
    <use xlink:href="#CMR17-32" transform="translate(878.192587 0)scale(0.996264)"/>
    <use xlink:href="#CMR17-2e" transform="translate(923.883064 0)scale(0.996264)"/>
    <use xlink:href="#CMR17-33" transform="translate(948.754123 0)scale(0.996264)"/>
    <use xlink:href="#CMR17-73" transform="translate(1024.520566 0)scale(0.996264)"/>
    <use xlink:href="#CMR17-65" transform="translate(1060.321904 0)scale(0.996264)"/>
    <use xlink:href="#CMR17-63" transform="translate(1100.807564 0)scale(0.996264)"/>
   </g>
  </g>
 </g>
 <defs>
  <clipPath id="pf624562d1a">
   <rect x="64.420435" y="80.041402" width="281.415321" height="273.263495"/>
  </clipPath>
  <clipPath id="pb8e2d605f6">
   <rect x="366.964244" y="80.041402" width="281.415321" height="273.263495"/>
  </clipPath>
 </defs>
</svg>
