<?xml version="1.0" encoding="utf-8" standalone="no"?>
<!DOCTYPE svg PUBLIC "-//W3C//DTD SVG 1.1//EN"
  "http://www.w3.org/Graphics/SVG/1.1/DTD/svg11.dtd">
<svg xmlns:xlink="http://www.w3.org/1999/xlink" width="618.147547pt" height="348.077981pt" viewBox="0 0 618.147547 348.077981" xmlns="http://www.w3.org/2000/svg" version="1.1">
 <metadata>
  <rdf:RDF xmlns:dc="http://purl.org/dc/elements/1.1/" xmlns:cc="http://creativecommons.org/ns#" xmlns:rdf="http://www.w3.org/1999/02/22-rdf-syntax-ns#">
   <cc:Work>
    <dc:type rdf:resource="http://purl.org/dc/dcmitype/StillImage"/>
    <dc:date>2023-04-09T20:28:59.709411</dc:date>
    <dc:format>image/svg+xml</dc:format>
    <dc:creator>
     <cc:Agent>
      <dc:title>Matplotlib v3.5.1, https://matplotlib.org/</dc:title>
     </cc:Agent>
    </dc:creator>
   </cc:Work>
  </rdf:RDF>
 </metadata>
 <defs>
  <style type="text/css">*{stroke-linejoin: round; stroke-linecap: butt}</style>
 </defs>
 <g id="figure_1">
  <g id="patch_1">
   <path d="M 0 348.077981 
L 618.147547 348.077981 
L 618.147547 0 
L 0 0 
z
" style="fill: #ffffff"/>
  </g>
  <g id="axes_1">
   <g id="patch_2">
    <path d="M 45.555547 306.8533 
L 491.955547 306.8533 
L 491.955547 29.6533 
L 45.555547 29.6533 
z
" style="fill: #ffffff"/>
   </g>
   <g id="PolyCollection_1">
    <defs>
     <path id="md083d74f7b" d="M 101.355547 -318.42468 
L 101.355547 -41.22468 
L 491.955547 -41.22468 
L 491.955547 -318.42468 
L 491.955547 -318.42468 
L 101.355547 -318.42468 
z
" style="stroke: #808080; stroke-opacity: 0.2"/>
    </defs>
    <g clip-path="url(#pb62b0a7160)">
     <use xlink:href="#md083d74f7b" x="0" y="348.077981" style="fill: #808080; fill-opacity: 0.2; stroke: #808080; stroke-opacity: 0.2"/>
    </g>
   </g>
   <g id="matplotlib.axis_1">
    <g id="xtick_1">
     <g id="line2d_1">
      <defs>
       <path id="m077c492d22" d="M 0 0 
L 0 3.5 
" style="stroke: #000000; stroke-width: 0.8"/>
      </defs>
      <g>
       <use xlink:href="#m077c492d22" x="45.555547" y="306.8533" style="stroke: #000000; stroke-width: 0.8"/>
      </g>
     </g>
     <g id="text_1">
      <!-- $\mathdefault{0}$ -->
      <g transform="translate(42.629051 322.15548)scale(0.12 -0.12)">
       <defs>
        <path id="CMR17-30" d="M 2688 2038 
C 2688 2430 2682 3099 2413 3613 
C 2176 4063 1798 4224 1466 4224 
C 1158 4224 768 4082 525 3620 
C 269 3137 243 2539 243 2038 
C 243 1671 250 1112 448 623 
C 723 -39 1216 -128 1466 -128 
C 1760 -128 2208 -7 2470 604 
C 2662 1048 2688 1568 2688 2038 
z
M 1466 -26 
C 1056 -26 813 328 723 816 
C 653 1196 653 1749 653 2109 
C 653 2604 653 3015 736 3407 
C 858 3954 1216 4121 1466 4121 
C 1728 4121 2067 3947 2189 3420 
C 2272 3054 2278 2623 2278 2109 
C 2278 1691 2278 1176 2202 797 
C 2067 96 1690 -26 1466 -26 
z
" transform="scale(0.015625)"/>
       </defs>
       <use xlink:href="#CMR17-30" transform="scale(0.996264)"/>
      </g>
     </g>
    </g>
    <g id="xtick_2">
     <g id="line2d_2">
      <g>
       <use xlink:href="#m077c492d22" x="101.355547" y="306.8533" style="stroke: #000000; stroke-width: 0.8"/>
      </g>
     </g>
     <g id="text_2">
      <!-- $\mathdefault{100}$ -->
      <g transform="translate(92.576061 322.15548)scale(0.12 -0.12)">
       <defs>
        <path id="CMR17-31" d="M 1702 4083 
C 1702 4217 1696 4224 1606 4224 
C 1357 3927 979 3833 621 3820 
C 602 3820 570 3820 563 3808 
C 557 3795 557 3782 557 3648 
C 755 3648 1088 3686 1344 3839 
L 1344 467 
C 1344 243 1331 166 781 166 
L 589 166 
L 589 0 
C 896 6 1216 12 1523 12 
C 1830 12 2150 6 2458 0 
L 2458 166 
L 2266 166 
C 1715 166 1702 236 1702 467 
L 1702 4083 
z
" transform="scale(0.015625)"/>
       </defs>
       <use xlink:href="#CMR17-31" transform="scale(0.996264)"/>
       <use xlink:href="#CMR17-30" transform="translate(45.690477 0)scale(0.996264)"/>
       <use xlink:href="#CMR17-30" transform="translate(91.380954 0)scale(0.996264)"/>
      </g>
     </g>
    </g>
    <g id="xtick_3">
     <g id="line2d_3">
      <g>
       <use xlink:href="#m077c492d22" x="157.155547" y="306.8533" style="stroke: #000000; stroke-width: 0.8"/>
      </g>
     </g>
     <g id="text_3">
      <!-- $\mathdefault{200}$ -->
      <g transform="translate(148.376061 322.15548)scale(0.12 -0.12)">
       <defs>
        <path id="CMR17-32" d="M 2669 990 
L 2554 990 
C 2490 537 2438 460 2413 422 
C 2381 371 1920 371 1830 371 
L 602 371 
C 832 620 1280 1073 1824 1596 
C 2214 1966 2669 2400 2669 3033 
C 2669 3788 2067 4224 1395 4224 
C 691 4224 262 3603 262 3027 
C 262 2777 448 2745 525 2745 
C 589 2745 781 2783 781 3007 
C 781 3206 614 3264 525 3264 
C 486 3264 448 3257 422 3244 
C 544 3788 915 4057 1306 4057 
C 1862 4057 2227 3616 2227 3033 
C 2227 2477 1901 1998 1536 1583 
L 262 147 
L 262 0 
L 2515 0 
L 2669 990 
z
" transform="scale(0.015625)"/>
       </defs>
       <use xlink:href="#CMR17-32" transform="scale(0.996264)"/>
       <use xlink:href="#CMR17-30" transform="translate(45.690477 0)scale(0.996264)"/>
       <use xlink:href="#CMR17-30" transform="translate(91.380954 0)scale(0.996264)"/>
      </g>
     </g>
    </g>
    <g id="xtick_4">
     <g id="line2d_4">
      <g>
       <use xlink:href="#m077c492d22" x="212.955547" y="306.8533" style="stroke: #000000; stroke-width: 0.8"/>
      </g>
     </g>
     <g id="text_4">
      <!-- $\mathdefault{300}$ -->
      <g transform="translate(204.176061 322.15548)scale(0.12 -0.12)">
       <defs>
        <path id="CMR17-33" d="M 1414 2176 
C 1984 2176 2234 1673 2234 1094 
C 2234 322 1824 25 1453 25 
C 1114 25 563 193 390 691 
C 422 678 454 678 486 678 
C 640 678 755 780 755 947 
C 755 1132 614 1216 486 1216 
C 378 1216 211 1164 211 927 
C 211 335 787 -128 1466 -128 
C 2176 -128 2720 432 2720 1087 
C 2720 1718 2208 2176 1600 2246 
C 2086 2347 2554 2776 2554 3353 
C 2554 3856 2048 4224 1472 4224 
C 890 4224 378 3862 378 3347 
C 378 3123 544 3084 627 3084 
C 762 3084 877 3167 877 3334 
C 877 3500 762 3584 627 3584 
C 602 3584 570 3584 544 3571 
C 730 3999 1235 4076 1459 4076 
C 1683 4076 2106 3966 2106 3347 
C 2106 3167 2080 2851 1862 2574 
C 1670 2329 1453 2316 1242 2297 
C 1210 2297 1062 2284 1037 2284 
C 992 2278 966 2272 966 2227 
C 966 2182 973 2176 1101 2176 
L 1414 2176 
z
" transform="scale(0.015625)"/>
       </defs>
       <use xlink:href="#CMR17-33" transform="scale(0.996264)"/>
       <use xlink:href="#CMR17-30" transform="translate(45.690477 0)scale(0.996264)"/>
       <use xlink:href="#CMR17-30" transform="translate(91.380954 0)scale(0.996264)"/>
      </g>
     </g>
    </g>
    <g id="xtick_5">
     <g id="line2d_5">
      <g>
       <use xlink:href="#m077c492d22" x="268.755547" y="306.8533" style="stroke: #000000; stroke-width: 0.8"/>
      </g>
     </g>
     <g id="text_5">
      <!-- $\mathdefault{400}$ -->
      <g transform="translate(259.976061 322.15548)scale(0.12 -0.12)">
       <defs>
        <path id="CMR17-34" d="M 2150 4147 
C 2150 4281 2144 4288 2029 4288 
L 128 1254 
L 128 1088 
L 1779 1088 
L 1779 460 
C 1779 230 1766 166 1318 166 
L 1197 166 
L 1197 0 
C 1402 12 1747 12 1965 12 
C 2182 12 2528 12 2733 0 
L 2733 166 
L 2611 166 
C 2163 166 2150 230 2150 460 
L 2150 1088 
L 2803 1088 
L 2803 1254 
L 2150 1254 
L 2150 4147 
z
M 1798 3723 
L 1798 1254 
L 256 1254 
L 1798 3723 
z
" transform="scale(0.015625)"/>
       </defs>
       <use xlink:href="#CMR17-34" transform="scale(0.996264)"/>
       <use xlink:href="#CMR17-30" transform="translate(45.690477 0)scale(0.996264)"/>
       <use xlink:href="#CMR17-30" transform="translate(91.380954 0)scale(0.996264)"/>
      </g>
     </g>
    </g>
    <g id="xtick_6">
     <g id="line2d_6">
      <g>
       <use xlink:href="#m077c492d22" x="324.555547" y="306.8533" style="stroke: #000000; stroke-width: 0.8"/>
      </g>
     </g>
     <g id="text_6">
      <!-- $\mathdefault{500}$ -->
      <g transform="translate(315.776061 322.15548)scale(0.12 -0.12)">
       <defs>
        <path id="CMR17-35" d="M 730 3750 
C 794 3724 1056 3641 1325 3641 
C 1920 3641 2246 3961 2432 4140 
C 2432 4191 2432 4224 2394 4224 
C 2387 4224 2374 4224 2323 4198 
C 2099 4102 1837 4032 1517 4032 
C 1325 4032 1037 4055 723 4191 
C 653 4224 640 4224 634 4224 
C 602 4224 595 4217 595 4090 
L 595 2231 
C 595 2113 595 2080 659 2080 
C 691 2080 704 2093 736 2139 
C 941 2435 1222 2560 1542 2560 
C 1766 2560 2246 2415 2246 1293 
C 2246 1087 2246 716 2054 422 
C 1894 159 1645 25 1370 25 
C 947 25 518 319 403 812 
C 429 806 480 793 506 793 
C 589 793 749 838 749 1036 
C 749 1209 627 1280 506 1280 
C 358 1280 262 1190 262 1011 
C 262 454 704 -128 1382 -128 
C 2042 -128 2669 441 2669 1267 
C 2669 2054 2170 2662 1549 2662 
C 1222 2662 947 2540 730 2304 
L 730 3750 
z
" transform="scale(0.015625)"/>
       </defs>
       <use xlink:href="#CMR17-35" transform="scale(0.996264)"/>
       <use xlink:href="#CMR17-30" transform="translate(45.690477 0)scale(0.996264)"/>
       <use xlink:href="#CMR17-30" transform="translate(91.380954 0)scale(0.996264)"/>
      </g>
     </g>
    </g>
    <g id="xtick_7">
     <g id="line2d_7">
      <g>
       <use xlink:href="#m077c492d22" x="380.355547" y="306.8533" style="stroke: #000000; stroke-width: 0.8"/>
      </g>
     </g>
     <g id="text_7">
      <!-- $\mathdefault{600}$ -->
      <g transform="translate(371.576061 322.15548)scale(0.12 -0.12)">
       <defs>
        <path id="CMR17-36" d="M 678 2198 
C 678 3712 1395 4076 1811 4076 
C 1946 4076 2272 4049 2400 3782 
C 2298 3782 2106 3782 2106 3558 
C 2106 3385 2246 3328 2336 3328 
C 2394 3328 2566 3353 2566 3571 
C 2566 3987 2246 4224 1805 4224 
C 1043 4224 243 3411 243 2011 
C 243 257 966 -128 1478 -128 
C 2099 -128 2688 431 2688 1295 
C 2688 2101 2170 2688 1517 2688 
C 1126 2688 838 2430 678 1979 
L 678 2198 
z
M 1478 25 
C 691 25 691 1212 691 1450 
C 691 1914 909 2585 1504 2585 
C 1613 2585 1926 2585 2138 2140 
C 2253 1889 2253 1624 2253 1302 
C 2253 954 2253 696 2118 438 
C 1978 173 1773 25 1478 25 
z
" transform="scale(0.015625)"/>
       </defs>
       <use xlink:href="#CMR17-36" transform="scale(0.996264)"/>
       <use xlink:href="#CMR17-30" transform="translate(45.690477 0)scale(0.996264)"/>
       <use xlink:href="#CMR17-30" transform="translate(91.380954 0)scale(0.996264)"/>
      </g>
     </g>
    </g>
    <g id="xtick_8">
     <g id="line2d_8">
      <g>
       <use xlink:href="#m077c492d22" x="436.155547" y="306.8533" style="stroke: #000000; stroke-width: 0.8"/>
      </g>
     </g>
     <g id="text_8">
      <!-- $\mathdefault{700}$ -->
      <g transform="translate(427.376061 322.15548)scale(0.12 -0.12)">
       <defs>
        <path id="CMR17-37" d="M 2886 3955 
L 2886 4096 
L 1382 4096 
C 634 4096 621 4166 595 4288 
L 480 4288 
L 294 3104 
L 410 3104 
C 429 3226 474 3552 550 3673 
C 589 3724 1062 3724 1171 3724 
L 2579 3724 
L 1869 2670 
C 1395 1961 1069 1003 1069 166 
C 1069 89 1069 -128 1299 -128 
C 1530 -128 1530 89 1530 172 
L 1530 466 
C 1530 1514 1709 2204 2003 2644 
L 2886 3955 
z
" transform="scale(0.015625)"/>
       </defs>
       <use xlink:href="#CMR17-37" transform="scale(0.996264)"/>
       <use xlink:href="#CMR17-30" transform="translate(45.690477 0)scale(0.996264)"/>
       <use xlink:href="#CMR17-30" transform="translate(91.380954 0)scale(0.996264)"/>
      </g>
     </g>
    </g>
    <g id="xtick_9">
     <g id="line2d_9">
      <g>
       <use xlink:href="#m077c492d22" x="491.955547" y="306.8533" style="stroke: #000000; stroke-width: 0.8"/>
      </g>
     </g>
     <g id="text_9">
      <!-- $\mathdefault{800}$ -->
      <g transform="translate(483.176061 322.15548)scale(0.12 -0.12)">
       <defs>
        <path id="CMR17-38" d="M 1741 2289 
C 2144 2494 2554 2803 2554 3298 
C 2554 3884 1990 4224 1472 4224 
C 890 4224 378 3800 378 3215 
C 378 3054 416 2777 666 2533 
C 730 2469 998 2276 1171 2154 
C 883 2006 211 1652 211 945 
C 211 282 838 -128 1459 -128 
C 2144 -128 2720 366 2720 1022 
C 2720 1607 2330 1877 2074 2051 
L 1741 2289 
z
M 902 2855 
C 851 2887 595 3086 595 3388 
C 595 3781 998 4076 1459 4076 
C 1965 4076 2336 3716 2336 3298 
C 2336 2700 1670 2359 1638 2359 
C 1632 2359 1626 2359 1574 2398 
L 902 2855 
z
M 2080 1536 
C 2176 1466 2483 1253 2483 861 
C 2483 385 2010 25 1472 25 
C 890 25 448 443 448 951 
C 448 1459 838 1884 1280 2083 
L 2080 1536 
z
" transform="scale(0.015625)"/>
       </defs>
       <use xlink:href="#CMR17-38" transform="scale(0.996264)"/>
       <use xlink:href="#CMR17-30" transform="translate(45.690477 0)scale(0.996264)"/>
       <use xlink:href="#CMR17-30" transform="translate(91.380954 0)scale(0.996264)"/>
      </g>
     </g>
    </g>
    <g id="text_10">
     <!-- Time -->
     <g transform="translate(253.201767 338.165952)scale(0.14 -0.14)">
      <defs>
       <path id="CMR17-54" d="M 3981 4332 
L 288 4332 
L 179 2924 
L 294 2924 
C 378 3981 467 4166 1453 4166 
C 1568 4166 1754 4166 1805 4159 
C 1926 4140 1926 4064 1926 3917 
L 1926 465 
C 1926 236 1907 166 1376 166 
L 1197 166 
L 1197 0 
C 1504 6 1824 12 2138 12 
C 2451 12 2771 6 3078 0 
L 3078 166 
L 2899 166 
C 2368 166 2349 236 2349 465 
L 2349 3917 
C 2349 4057 2349 4134 2464 4159 
C 2515 4166 2701 4166 2816 4166 
C 3795 4166 3891 3981 3974 2924 
L 4090 2924 
L 3981 4332 
z
" transform="scale(0.015625)"/>
       <path id="CMR17-69" d="M 992 3961 
C 992 4102 877 4224 730 4224 
C 589 4224 467 4108 467 3961 
C 467 3820 582 3699 730 3699 
C 870 3699 992 3814 992 3961 
z
M 243 2745 
L 243 2579 
C 602 2579 653 2540 653 2231 
L 653 443 
C 653 198 627 166 218 166 
L 218 0 
C 371 12 646 12 806 12 
C 960 12 1222 12 1370 0 
L 1370 166 
C 992 166 979 205 979 436 
L 979 2816 
L 243 2745 
z
" transform="scale(0.015625)"/>
       <path id="CMR17-6d" d="M 4326 1954 
C 4326 2276 4269 2816 3507 2816 
C 3072 2816 2771 2520 2656 2173 
L 2650 2173 
C 2573 2700 2195 2816 1837 2816 
C 1331 2816 1069 2424 973 2166 
L 966 2166 
L 966 2816 
L 211 2745 
L 211 2578 
C 589 2578 646 2540 646 2231 
L 646 443 
C 646 198 621 166 211 166 
L 211 0 
C 365 12 646 12 813 12 
C 979 12 1267 12 1421 0 
L 1421 166 
C 1011 166 986 192 986 443 
L 986 1678 
C 986 2269 1344 2713 1792 2713 
C 2266 2713 2317 2289 2317 1980 
L 2317 443 
C 2317 198 2291 166 1882 166 
L 1882 0 
C 2035 12 2317 12 2483 12 
C 2650 12 2938 12 3091 0 
L 3091 166 
C 2682 166 2656 192 2656 443 
L 2656 1678 
C 2656 2269 3014 2713 3462 2713 
C 3936 2713 3987 2289 3987 1980 
L 3987 443 
C 3987 198 3962 166 3552 166 
L 3552 0 
C 3706 12 3987 12 4154 12 
C 4320 12 4608 12 4762 0 
L 4762 166 
C 4352 166 4326 192 4326 443 
L 4326 1954 
z
" transform="scale(0.015625)"/>
       <path id="CMR17-65" d="M 2438 1503 
C 2464 1529 2464 1542 2464 1606 
C 2464 2251 2118 2816 1389 2816 
C 710 2816 173 2175 173 1394 
C 173 554 781 -64 1459 -64 
C 2176 -64 2458 619 2458 755 
C 2458 800 2419 800 2406 800 
C 2362 800 2355 787 2330 709 
C 2189 270 1837 51 1504 51 
C 1229 51 954 206 781 490 
C 582 819 582 1200 582 1503 
L 2438 1503 
z
M 589 1600 
C 634 2511 1126 2713 1382 2713 
C 1818 2713 2112 2308 2118 1600 
L 589 1600 
z
" transform="scale(0.015625)"/>
      </defs>
      <use xlink:href="#CMR17-54" transform="scale(0.996264)"/>
      <use xlink:href="#CMR17-69" transform="translate(66.509881 0)scale(0.996264)"/>
      <use xlink:href="#CMR17-6d" transform="translate(91.380939 0)scale(0.996264)"/>
      <use xlink:href="#CMR17-65" transform="translate(168.300529 0)scale(0.996264)"/>
     </g>
    </g>
   </g>
   <g id="matplotlib.axis_2">
    <g id="ytick_1">
     <g id="line2d_10">
      <defs>
       <path id="m13ab1d71bc" d="M 0 0 
L -3.5 0 
" style="stroke: #000000; stroke-width: 0.8"/>
      </defs>
      <g>
       <use xlink:href="#m13ab1d71bc" x="45.555547" y="306.8533" style="stroke: #000000; stroke-width: 0.8"/>
      </g>
     </g>
     <g id="text_11">
      <!-- $\mathdefault{0.0}$ -->
      <g transform="translate(23.597905 311.00439)scale(0.12 -0.12)">
       <defs>
        <path id="CMMI12-3a" d="M 1178 307 
C 1178 492 1024 620 870 620 
C 685 620 557 467 557 313 
C 557 128 710 0 864 0 
C 1050 0 1178 153 1178 307 
z
" transform="scale(0.015625)"/>
       </defs>
       <use xlink:href="#CMR17-30" transform="scale(0.996264)"/>
       <use xlink:href="#CMMI12-3a" transform="translate(45.690477 0)scale(0.996264)"/>
       <use xlink:href="#CMR17-30" transform="translate(72.787654 0)scale(0.996264)"/>
      </g>
     </g>
    </g>
    <g id="ytick_2">
     <g id="line2d_11">
      <g>
       <use xlink:href="#m13ab1d71bc" x="45.555547" y="254.0533" style="stroke: #000000; stroke-width: 0.8"/>
      </g>
     </g>
     <g id="text_12">
      <!-- $\mathdefault{0.2}$ -->
      <g transform="translate(23.597905 258.20439)scale(0.12 -0.12)">
       <use xlink:href="#CMR17-30" transform="scale(0.996264)"/>
       <use xlink:href="#CMMI12-3a" transform="translate(45.690477 0)scale(0.996264)"/>
       <use xlink:href="#CMR17-32" transform="translate(72.787654 0)scale(0.996264)"/>
      </g>
     </g>
    </g>
    <g id="ytick_3">
     <g id="line2d_12">
      <g>
       <use xlink:href="#m13ab1d71bc" x="45.555547" y="201.2533" style="stroke: #000000; stroke-width: 0.8"/>
      </g>
     </g>
     <g id="text_13">
      <!-- $\mathdefault{0.4}$ -->
      <g transform="translate(23.597905 205.40439)scale(0.12 -0.12)">
       <use xlink:href="#CMR17-30" transform="scale(0.996264)"/>
       <use xlink:href="#CMMI12-3a" transform="translate(45.690477 0)scale(0.996264)"/>
       <use xlink:href="#CMR17-34" transform="translate(72.787654 0)scale(0.996264)"/>
      </g>
     </g>
    </g>
    <g id="ytick_4">
     <g id="line2d_13">
      <g>
       <use xlink:href="#m13ab1d71bc" x="45.555547" y="148.4533" style="stroke: #000000; stroke-width: 0.8"/>
      </g>
     </g>
     <g id="text_14">
      <!-- $\mathdefault{0.6}$ -->
      <g transform="translate(23.597905 152.60439)scale(0.12 -0.12)">
       <use xlink:href="#CMR17-30" transform="scale(0.996264)"/>
       <use xlink:href="#CMMI12-3a" transform="translate(45.690477 0)scale(0.996264)"/>
       <use xlink:href="#CMR17-36" transform="translate(72.787654 0)scale(0.996264)"/>
      </g>
     </g>
    </g>
    <g id="ytick_5">
     <g id="line2d_14">
      <g>
       <use xlink:href="#m13ab1d71bc" x="45.555547" y="95.6533" style="stroke: #000000; stroke-width: 0.8"/>
      </g>
     </g>
     <g id="text_15">
      <!-- $\mathdefault{0.8}$ -->
      <g transform="translate(23.597905 99.80439)scale(0.12 -0.12)">
       <use xlink:href="#CMR17-30" transform="scale(0.996264)"/>
       <use xlink:href="#CMMI12-3a" transform="translate(45.690477 0)scale(0.996264)"/>
       <use xlink:href="#CMR17-38" transform="translate(72.787654 0)scale(0.996264)"/>
      </g>
     </g>
    </g>
    <g id="ytick_6">
     <g id="line2d_15">
      <g>
       <use xlink:href="#m13ab1d71bc" x="45.555547" y="42.8533" style="stroke: #000000; stroke-width: 0.8"/>
      </g>
     </g>
     <g id="text_16">
      <!-- $\mathdefault{1.0}$ -->
      <g transform="translate(23.597905 47.00439)scale(0.12 -0.12)">
       <use xlink:href="#CMR17-31" transform="scale(0.996264)"/>
       <use xlink:href="#CMMI12-3a" transform="translate(45.690477 0)scale(0.996264)"/>
       <use xlink:href="#CMR17-30" transform="translate(72.787654 0)scale(0.996264)"/>
      </g>
     </g>
    </g>
    <g id="text_17">
     <!-- Population -->
     <g transform="translate(16.885876 200.782256)rotate(-90)scale(0.14 -0.14)">
      <defs>
       <path id="CMR17-50" d="M 1267 2048 
L 2291 2048 
C 3117 2048 3718 2583 3718 3187 
C 3718 3791 3130 4352 2291 4352 
L 333 4352 
L 333 4185 
C 774 4185 845 4185 845 3899 
L 845 453 
C 845 166 774 166 333 166 
L 333 0 
C 518 12 858 12 1056 12 
C 1254 12 1594 12 1779 0 
L 1779 166 
C 1338 166 1267 166 1267 453 
L 1267 2048 
z
M 1254 2182 
L 1254 3937 
C 1254 4153 1267 4185 1523 4185 
L 2170 4185 
C 2995 4185 3232 3715 3232 3187 
C 3232 2608 2950 2182 2170 2182 
L 1254 2182 
z
" transform="scale(0.015625)"/>
       <path id="CMR17-6f" d="M 2758 1356 
C 2758 2176 2163 2816 1466 2816 
C 768 2816 173 2176 173 1356 
C 173 550 768 -64 1466 -64 
C 2163 -64 2758 550 2758 1356 
z
M 1466 51 
C 1165 51 909 230 762 480 
C 602 768 582 1126 582 1408 
C 582 1676 595 2009 762 2297 
C 890 2508 1139 2713 1466 2713 
C 1754 2713 1997 2553 2150 2329 
C 2349 2028 2349 1606 2349 1408 
C 2349 1158 2336 774 2163 467 
C 1984 172 1709 51 1466 51 
z
" transform="scale(0.015625)"/>
       <path id="CMR17-70" d="M 1408 -1114 
C 998 -1114 973 -1088 973 -834 
L 973 380 
C 1158 109 1427 -64 1766 -64 
C 2406 -64 3053 503 3053 1382 
C 3053 2196 2496 2816 1837 2816 
C 1453 2816 1139 2603 960 2345 
L 960 2816 
L 198 2745 
L 198 2577 
C 576 2577 634 2539 634 2228 
L 634 -834 
C 634 -1081 608 -1114 198 -1114 
L 198 -1280 
C 352 -1268 634 -1268 800 -1268 
C 966 -1268 1254 -1268 1408 -1280 
L 1408 -1114 
z
M 973 2015 
C 973 2106 973 2241 1222 2481 
C 1254 2506 1472 2700 1792 2700 
C 2259 2700 2643 2112 2643 1376 
C 2643 639 2234 38 1728 38 
C 1498 38 1248 148 1056 451 
C 973 594 973 632 973 736 
L 973 2015 
z
" transform="scale(0.015625)"/>
       <path id="CMR17-75" d="M 1882 2745 
L 1882 2579 
C 2259 2579 2317 2540 2317 2229 
L 2317 1053 
C 2317 510 2029 38 1555 38 
C 1030 38 986 355 986 691 
L 986 2816 
L 211 2745 
L 211 2579 
C 467 2579 640 2579 646 2320 
L 646 1079 
C 646 646 646 368 813 187 
C 896 103 1056 -64 1517 -64 
C 2061 -64 2272 400 2323 536 
L 2330 536 
L 2330 -64 
L 3091 -13 
L 3091 154 
C 2714 154 2656 193 2656 503 
L 2656 2816 
L 1882 2745 
z
" transform="scale(0.015625)"/>
       <path id="CMR17-6c" d="M 979 4416 
L 218 4345 
L 218 4179 
C 595 4179 653 4141 653 3835 
L 653 439 
C 653 198 627 166 218 166 
L 218 0 
C 371 12 653 12 813 12 
C 979 12 1261 12 1414 0 
L 1414 166 
C 1005 166 979 191 979 439 
L 979 4416 
z
" transform="scale(0.015625)"/>
       <path id="CMR17-61" d="M 2304 1656 
C 2304 2048 2304 2275 2035 2534 
C 1798 2751 1523 2816 1306 2816 
C 800 2816 435 2408 435 1977 
C 435 1740 627 1728 666 1728 
C 749 1728 896 1779 896 1958 
C 896 2118 774 2188 666 2188 
C 640 2188 608 2182 589 2176 
C 723 2594 1069 2713 1293 2713 
C 1613 2713 1965 2421 1965 1875 
L 1965 1632 
C 1587 1619 1133 1568 774 1373 
C 371 1147 256 822 256 576 
C 256 77 832 -64 1171 -64 
C 1523 -64 1850 135 1990 505 
C 2003 219 2182 -39 2464 -39 
C 2598 -39 2938 51 2938 563 
L 2938 926 
L 2822 926 
L 2822 557 
C 2822 161 2650 109 2566 109 
C 2304 109 2304 446 2304 732 
L 2304 1656 
z
M 1965 887 
C 1965 323 1568 38 1216 38 
C 896 38 646 278 646 576 
C 646 771 730 1114 1101 1322 
C 1408 1497 1760 1523 1965 1536 
L 1965 887 
z
" transform="scale(0.015625)"/>
       <path id="CMR17-74" d="M 966 2585 
L 1862 2585 
L 1862 2752 
L 966 2752 
L 966 3968 
L 851 3968 
C 838 3292 614 2700 70 2687 
L 70 2585 
L 627 2585 
L 627 778 
C 627 655 627 -64 1370 -64 
C 1747 -64 1965 308 1965 784 
L 1965 1151 
L 1850 1151 
L 1850 790 
C 1850 347 1677 51 1408 51 
C 1222 51 966 179 966 765 
L 966 2585 
z
" transform="scale(0.015625)"/>
       <path id="CMR17-6e" d="M 2656 1954 
C 2656 2282 2592 2816 1837 2816 
C 1331 2816 1069 2424 973 2166 
L 966 2166 
L 966 2816 
L 211 2745 
L 211 2578 
C 589 2578 646 2540 646 2231 
L 646 443 
C 646 198 621 166 211 166 
L 211 0 
C 365 12 646 12 813 12 
C 979 12 1267 12 1421 0 
L 1421 166 
C 1011 166 986 192 986 443 
L 986 1678 
C 986 2269 1344 2713 1792 2713 
C 2266 2713 2317 2289 2317 1980 
L 2317 443 
C 2317 198 2291 166 1882 166 
L 1882 0 
C 2035 12 2317 12 2483 12 
C 2650 12 2938 12 3091 0 
L 3091 166 
C 2682 166 2656 192 2656 443 
L 2656 1954 
z
" transform="scale(0.015625)"/>
      </defs>
      <use xlink:href="#CMR17-50" transform="scale(0.996264)"/>
      <use xlink:href="#CMR17-6f" transform="translate(59.983847 0)scale(0.996264)"/>
      <use xlink:href="#CMR17-70" transform="translate(105.674324 0)scale(0.996264)"/>
      <use xlink:href="#CMR17-75" transform="translate(156.569693 0)scale(0.996264)"/>
      <use xlink:href="#CMR17-6c" transform="translate(207.465063 0)scale(0.996264)"/>
      <use xlink:href="#CMR17-61" transform="translate(232.336122 0)scale(0.996264)"/>
      <use xlink:href="#CMR17-74" transform="translate(278.026599 0)scale(0.996264)"/>
      <use xlink:href="#CMR17-69" transform="translate(313.307367 0)scale(0.996264)"/>
      <use xlink:href="#CMR17-6f" transform="translate(338.178425 0)scale(0.996264)"/>
      <use xlink:href="#CMR17-6e" transform="translate(383.868902 0)scale(0.996264)"/>
     </g>
    </g>
   </g>
   <g id="line2d_16">
    <path d="M 45.555547 42.8533 
L 101.512206 42.964379 
L 101.746675 43.473113 
L 102.139018 44.944743 
L 102.96591 49.117383 
L 104.750996 57.990594 
L 106.15468 63.786459 
L 107.649025 69.021126 
L 109.266857 73.885236 
L 111.02068 78.458579 
L 112.919874 82.793345 
L 114.976943 86.936321 
L 117.209082 90.932466 
L 119.638175 94.824669 
L 122.292357 98.656125 
L 125.20758 102.471793 
L 128.430739 106.321257 
L 132.019668 110.257414 
L 136.049398 114.342466 
L 140.618405 118.652328 
L 145.857992 123.283104 
L 151.940101 128.355124 
L 159.058561 133.99504 
L 167.308722 140.242483 
L 176.410784 146.854506 
L 185.764509 153.375927 
L 195.091661 159.608682 
L 204.561058 165.668256 
L 214.42905 171.717119 
L 224.83632 177.833882 
L 235.85477 184.049949 
L 247.595383 190.415686 
L 260.256676 197.024545 
L 274.154398 204.023834 
L 289.902857 211.700089 
L 309.254314 220.872848 
L 362.989777 246.194694 
L 375.701089 252.529026 
L 386.442867 258.125579 
L 396.032623 263.36948 
L 404.958053 268.502022 
L 413.666208 273.767014 
L 422.89332 279.61204 
L 448.372217 295.942926 
L 453.166314 298.612195 
L 457.297647 300.663689 
L 461.047578 302.281556 
L 464.577108 303.564806 
L 468.009725 304.577493 
L 471.464226 305.364413 
L 475.081292 305.958018 
L 479.079759 306.383782 
L 483.880108 306.661676 
L 490.626545 306.809857 
L 491.956762 306.821836 
L 491.956762 306.821836 
" clip-path="url(#pb62b0a7160)" style="fill: none; stroke-dasharray: 7.4,3.2; stroke-dashoffset: 0; stroke: #65156e; stroke-width: 2"/>
   </g>
   <g id="line2d_17">
    <path d="M 45.555547 42.8533 
L 101.50908 42.962654 
L 101.737296 43.468798 
L 102.112445 44.934267 
L 102.822103 48.780007 
L 105.366866 63.021569 
L 106.972193 70.503504 
L 108.749463 77.724788 
L 110.789338 85.073473 
L 113.19811 92.905931 
L 116.011731 101.292676 
L 118.865992 109.123724 
L 121.42795 115.525171 
L 123.907062 121.12444 
L 126.71912 126.910447 
L 130.356506 133.863972 
L 134.57381 141.450494 
L 138.914602 148.80391 
L 143.433589 156.021198 
L 148.201112 163.215142 
L 153.257814 170.441337 
L 158.631829 177.731455 
L 164.349731 185.11147 
L 170.439656 192.606618 
L 176.943809 200.256629 
L 183.924714 208.121242 
L 191.494917 216.311013 
L 199.885758 225.055328 
L 209.719362 234.971039 
L 225.241168 250.253404 
L 237.256891 262.217371 
L 244.423808 269.663073 
L 250.176099 275.953534 
L 255.217169 281.7929 
L 260.040965 287.724328 
L 271.49709 302.031599 
L 273.283739 303.733516 
L 274.807783 304.888433 
L 276.21772 305.683509 
L 277.626093 306.223281 
L 279.170458 306.572155 
L 281.116546 306.770315 
L 284.419424 306.847127 
L 305.882659 306.8533 
L 491.956762 306.8533 
L 491.956762 306.8533 
" clip-path="url(#pb62b0a7160)" style="fill: none; stroke-dasharray: 7.4,3.2; stroke-dashoffset: 0; stroke: #d44842; stroke-width: 2"/>
   </g>
   <g id="line2d_18">
    <path d="M 45.555547 42.8533 
L 101.510643 42.96257 
L 101.743548 43.467592 
L 102.146834 44.965989 
L 102.978415 49.09991 
L 105.019853 59.251492 
L 106.398527 64.906146 
L 107.781891 69.661981 
L 109.199643 73.756357 
L 110.658036 77.301899 
L 112.163323 80.387053 
L 113.720193 83.078776 
L 115.338025 85.437682 
L 117.02776 87.512507 
L 118.805031 89.345266 
L 120.688593 90.969385 
L 122.703458 92.412876 
L 124.879325 93.696842 
L 127.255271 94.83839 
L 129.881317 95.85023 
L 132.823113 96.741467 
L 136.171322 97.518645 
L 140.054118 98.185822 
L 144.665329 98.745534 
L 150.320707 99.199328 
L 157.587663 99.548229 
L 167.655735 99.793601 
L 183.734013 99.938392 
L 220.608073 99.991875 
L 491.956762 99.994961 
L 491.956762 99.994961 
" clip-path="url(#pb62b0a7160)" style="fill: none; stroke: #65156e; stroke-width: 2; stroke-linecap: square"/>
   </g>
   <g id="line2d_19">
    <path d="M 45.555547 42.8533 
L 101.50908 42.96297 
L 101.737296 43.472479 
L 102.123387 44.971662 
L 102.872123 48.943732 
L 105.316846 62.252284 
L 106.718967 68.478667 
L 108.125778 73.736474 
L 109.565413 78.274889 
L 111.048817 82.229651 
L 112.58224 85.695303 
L 114.173499 88.750439 
L 115.831972 91.459631 
L 117.570164 93.877562 
L 119.402143 96.047761 
L 121.345105 98.006161 
L 123.420931 99.782952 
L 125.654633 101.401349 
L 128.07591 102.879542 
L 130.722277 104.232451 
L 133.639063 105.471001 
L 136.880979 106.602536 
L 140.516802 107.631964 
L 144.634067 108.561984 
L 149.348444 109.393758 
L 154.819373 110.127403 
L 161.275069 110.76214 
L 169.064109 111.296858 
L 178.761721 111.730446 
L 191.423013 112.062135 
L 209.319203 112.292095 
L 238.901296 112.422869 
L 314.026527 112.465342 
L 491.956762 112.466658 
L 491.956762 112.466658 
" clip-path="url(#pb62b0a7160)" style="fill: none; stroke: #d44842; stroke-width: 2; stroke-linecap: square"/>
   </g>
   <g id="line2d_20">
    <path clip-path="url(#pb62b0a7160)" style="fill: none; stroke: #65156e; stroke-width: 2; stroke-linecap: square"/>
   </g>
   <g id="line2d_21">
    <path clip-path="url(#pb62b0a7160)" style="fill: none; stroke: #d44842; stroke-width: 2; stroke-linecap: square"/>
   </g>
   <g id="line2d_22">
    <path clip-path="url(#pb62b0a7160)" style="fill: none; stroke: #000000; stroke-width: 2; stroke-linecap: square"/>
   </g>
   <g id="line2d_23">
    <path clip-path="url(#pb62b0a7160)" style="fill: none; stroke-dasharray: 7.4,3.2; stroke-dashoffset: 0; stroke: #000000; stroke-width: 2"/>
   </g>
   <g id="patch_3">
    <path d="M 45.555547 306.8533 
L 45.555547 29.6533 
" style="fill: none; stroke: #000000; stroke-width: 0.8; stroke-linejoin: miter; stroke-linecap: square"/>
   </g>
   <g id="patch_4">
    <path d="M 491.955547 306.8533 
L 491.955547 29.6533 
" style="fill: none; stroke: #000000; stroke-width: 0.8; stroke-linejoin: miter; stroke-linecap: square"/>
   </g>
   <g id="patch_5">
    <path d="M 45.555547 306.8533 
L 491.955547 306.8533 
" style="fill: none; stroke: #000000; stroke-width: 0.8; stroke-linejoin: miter; stroke-linecap: square"/>
   </g>
   <g id="patch_6">
    <path d="M 45.555547 29.6533 
L 491.955547 29.6533 
" style="fill: none; stroke: #000000; stroke-width: 0.8; stroke-linejoin: miter; stroke-linecap: square"/>
   </g>
   <g id="text_18">
    <!-- Substance injection begins -->
    <g transform="translate(104.145547 293.6533)scale(0.11 -0.11)">
     <defs>
      <path id="CMR17-53" d="M 2803 4351 
C 2803 4467 2797 4473 2758 4473 
C 2720 4473 2707 4447 2682 4390 
L 2490 3965 
C 2246 4320 1875 4480 1472 4480 
C 819 4480 294 3958 294 3301 
C 294 3101 339 2817 557 2546 
C 794 2250 1018 2198 1530 2063 
C 1722 2011 2042 1927 2106 1901 
C 2470 1747 2662 1360 2662 999 
C 2662 534 2336 38 1779 38 
C 1094 38 454 425 410 1328 
C 403 1431 397 1437 352 1437 
C 301 1437 294 1431 294 1302 
L 294 0 
C 294 -116 301 -122 339 -122 
C 384 -122 397 -90 486 109 
C 493 128 493 141 614 386 
C 934 -39 1472 -128 1779 -128 
C 2477 -128 2970 457 2970 1141 
C 2970 1476 2848 1734 2778 1850 
C 2509 2263 2221 2340 1914 2417 
C 1869 2437 1856 2437 1498 2527 
C 1152 2617 1005 2662 845 2836 
C 666 3036 602 3243 602 3449 
C 602 3868 934 4326 1478 4326 
C 2157 4326 2579 3842 2675 3036 
C 2694 2920 2701 2914 2746 2914 
C 2803 2914 2803 2933 2803 3043 
L 2803 4351 
z
" transform="scale(0.015625)"/>
      <path id="CMR17-62" d="M 960 4416 
L 198 4345 
L 198 4179 
C 576 4179 634 4141 634 3843 
L 634 -13 
L 749 -13 
L 934 445 
C 1120 141 1395 -64 1766 -64 
C 2406 -64 3053 503 3053 1382 
C 3053 2209 2477 2816 1830 2816 
C 1434 2816 1152 2603 960 2351 
L 960 4416 
z
M 973 2022 
C 973 2138 973 2157 1062 2293 
C 1312 2681 1670 2713 1792 2713 
C 1984 2713 2643 2610 2643 1388 
C 2643 109 1888 38 1734 38 
C 1536 38 1248 115 1043 490 
C 973 613 973 626 973 742 
L 973 2022 
z
" transform="scale(0.015625)"/>
      <path id="CMR17-73" d="M 1978 2688 
C 1978 2803 1971 2809 1933 2809 
C 1907 2809 1901 2803 1824 2707 
C 1805 2681 1747 2617 1728 2592 
C 1523 2809 1235 2816 1126 2816 
C 416 2816 160 2444 160 2073 
C 160 1497 813 1363 998 1324 
C 1402 1241 1542 1216 1677 1100 
C 1760 1024 1901 883 1901 652 
C 1901 384 1747 38 1158 38 
C 602 38 403 460 288 1024 
C 269 1113 269 1120 218 1120 
C 166 1120 160 1113 160 985 
L 160 64 
C 160 -52 166 -58 205 -58 
C 237 -58 243 -52 275 0 
C 314 57 410 211 448 275 
C 576 102 800 -64 1158 -64 
C 1792 -64 2131 281 2131 780 
C 2131 1107 1958 1280 1875 1356 
C 1683 1555 1459 1600 1190 1651 
C 838 1728 390 1817 390 2208 
C 390 2374 480 2726 1126 2726 
C 1811 2726 1850 2086 1862 1881 
C 1869 1849 1901 1843 1920 1843 
C 1978 1843 1978 1862 1978 1971 
L 1978 2688 
z
" transform="scale(0.015625)"/>
      <path id="CMR17-63" d="M 2234 2240 
C 2112 2240 1933 2240 1933 2015 
C 1933 1836 2080 1785 2163 1785 
C 2208 1785 2394 1804 2394 2028 
C 2394 2476 1958 2816 1466 2816 
C 787 2816 211 2201 211 1379 
C 211 521 813 -64 1466 -64 
C 2259 -64 2458 676 2458 747 
C 2458 773 2451 792 2406 792 
C 2362 792 2355 786 2330 702 
C 2163 180 1798 51 1523 51 
C 1114 51 621 431 621 1385 
C 621 2358 1094 2700 1472 2700 
C 1722 2700 2093 2582 2234 2240 
z
" transform="scale(0.015625)"/>
      <path id="CMR17-6a" d="M 1165 3961 
C 1165 4102 1050 4224 902 4224 
C 762 4224 640 4108 640 3961 
C 640 3820 755 3699 902 3699 
C 1043 3699 1165 3814 1165 3961 
z
M 365 2745 
L 365 2579 
C 787 2579 838 2533 838 2221 
L 838 -410 
C 838 -735 781 -1242 403 -1242 
C 358 -1242 186 -1236 45 -1145 
C 90 -1138 250 -1093 250 -911 
C 250 -787 166 -677 19 -677 
C -122 -677 -211 -774 -211 -917 
C -211 -1177 70 -1344 397 -1344 
C 838 -1344 1165 -937 1165 -384 
L 1165 2816 
L 365 2745 
z
" transform="scale(0.015625)"/>
      <path id="CMR17-67" d="M 710 1165 
C 832 1068 1043 960 1299 960 
C 1805 960 2240 1359 2240 1895 
C 2240 2063 2189 2321 1997 2521 
C 2176 2713 2438 2777 2586 2777 
C 2611 2777 2650 2777 2682 2758 
C 2656 2751 2598 2726 2598 2623 
C 2598 2540 2656 2483 2739 2483 
C 2835 2483 2886 2547 2886 2630 
C 2886 2751 2790 2880 2586 2880 
C 2330 2880 2106 2758 1926 2591 
C 1734 2764 1504 2828 1299 2828 
C 794 2828 358 2431 358 1895 
C 358 1527 570 1294 634 1230 
C 442 1004 442 742 442 710 
C 442 544 506 300 723 166 
C 390 82 128 -184 128 -517 
C 128 -996 736 -1344 1466 -1344 
C 2170 -1344 2803 -1009 2803 -510 
C 2803 384 1856 384 1363 384 
C 1216 384 954 384 922 390 
C 723 422 589 601 589 825 
C 589 883 589 1024 710 1165 
z
M 1299 1068 
C 736 1068 736 1766 736 1895 
C 736 2024 736 2719 1299 2719 
C 1862 2719 1862 2024 1862 1895 
C 1862 1766 1862 1068 1299 1068 
z
M 1466 -1236 
C 826 -1236 384 -883 384 -517 
C 384 -311 493 -118 634 -11 
C 794 102 858 102 1293 102 
C 1818 102 2547 102 2547 -517 
C 2547 -883 2106 -1236 1466 -1236 
z
" transform="scale(0.015625)"/>
     </defs>
     <use xlink:href="#CMR17-53" transform="scale(0.996264)"/>
     <use xlink:href="#CMR17-75" transform="translate(50.89537 0)scale(0.996264)"/>
     <use xlink:href="#CMR17-62" transform="translate(101.79074 0)scale(0.996264)"/>
     <use xlink:href="#CMR17-73" transform="translate(152.686109 0)scale(0.996264)"/>
     <use xlink:href="#CMR17-74" transform="translate(188.487447 0)scale(0.996264)"/>
     <use xlink:href="#CMR17-61" transform="translate(223.768215 0)scale(0.996264)"/>
     <use xlink:href="#CMR17-6e" transform="translate(269.458692 0)scale(0.996264)"/>
     <use xlink:href="#CMR17-63" transform="translate(320.354062 0)scale(0.996264)"/>
     <use xlink:href="#CMR17-65" transform="translate(360.839722 0)scale(0.996264)"/>
     <use xlink:href="#CMR17-69" transform="translate(431.401349 0)scale(0.996264)"/>
     <use xlink:href="#CMR17-6e" transform="translate(456.272407 0)scale(0.996264)"/>
     <use xlink:href="#CMR17-6a" transform="translate(507.167777 0)scale(0.996264)"/>
     <use xlink:href="#CMR17-65" transform="translate(534.64129 0)scale(0.996264)"/>
     <use xlink:href="#CMR17-63" transform="translate(575.12695 0)scale(0.996264)"/>
     <use xlink:href="#CMR17-74" transform="translate(615.612611 0)scale(0.996264)"/>
     <use xlink:href="#CMR17-69" transform="translate(650.893378 0)scale(0.996264)"/>
     <use xlink:href="#CMR17-6f" transform="translate(675.764437 0)scale(0.996264)"/>
     <use xlink:href="#CMR17-6e" transform="translate(721.454914 0)scale(0.996264)"/>
     <use xlink:href="#CMR17-62" transform="translate(802.42625 0)scale(0.996264)"/>
     <use xlink:href="#CMR17-65" transform="translate(855.924059 0)scale(0.996264)"/>
     <use xlink:href="#CMR17-67" transform="translate(896.409719 0)scale(0.996264)"/>
     <use xlink:href="#CMR17-69" transform="translate(942.100196 0)scale(0.996264)"/>
     <use xlink:href="#CMR17-6e" transform="translate(966.971255 0)scale(0.996264)"/>
     <use xlink:href="#CMR17-73" transform="translate(1017.866624 0)scale(0.996264)"/>
    </g>
   </g>
   <g id="text_19">
    <!-- Total population in bacterial models -->
    <g transform="translate(137.769533 19.6533)scale(0.18 -0.18)">
     <defs>
      <path id="CMR17-72" d="M 960 1517 
C 960 2134 1222 2713 1702 2713 
C 1747 2713 1792 2707 1837 2687 
C 1837 2687 1696 2642 1696 2475 
C 1696 2321 1818 2257 1914 2257 
C 1990 2257 2131 2302 2131 2482 
C 2131 2687 1926 2816 1709 2816 
C 1222 2816 1011 2340 947 2115 
L 941 2115 
L 941 2816 
L 198 2745 
L 198 2578 
C 576 2578 634 2540 634 2231 
L 634 443 
C 634 198 608 166 198 166 
L 198 0 
C 352 12 646 12 813 12 
C 998 12 1325 12 1498 0 
L 1498 166 
C 1037 166 960 166 960 455 
L 960 1517 
z
" transform="scale(0.015625)"/>
      <path id="CMR17-64" d="M 1869 4345 
L 1869 4179 
C 2246 4179 2304 4141 2304 3843 
L 2304 2371 
C 2278 2403 2016 2816 1498 2816 
C 845 2816 211 2228 211 1376 
C 211 529 806 -64 1434 -64 
C 1978 -64 2259 361 2291 406 
L 2291 -64 
L 3066 -13 
L 3066 154 
C 2688 154 2630 193 2630 503 
L 2630 4416 
L 1869 4345 
z
M 2291 762 
C 2291 568 2176 393 2029 264 
C 1811 70 1594 38 1472 38 
C 1286 38 621 135 621 1369 
C 621 2636 1363 2713 1530 2713 
C 1824 2713 2061 2545 2208 2313 
C 2291 2177 2291 2157 2291 2041 
L 2291 762 
z
" transform="scale(0.015625)"/>
     </defs>
     <use xlink:href="#CMR17-54" transform="scale(0.996264)"/>
     <use xlink:href="#CMR17-6f" transform="translate(58.702625 0)scale(0.996264)"/>
     <use xlink:href="#CMR17-74" transform="translate(104.393102 0)scale(0.996264)"/>
     <use xlink:href="#CMR17-61" transform="translate(139.67387 0)scale(0.996264)"/>
     <use xlink:href="#CMR17-6c" transform="translate(185.364347 0)scale(0.996264)"/>
     <use xlink:href="#CMR17-70" transform="translate(240.311372 0)scale(0.996264)"/>
     <use xlink:href="#CMR17-6f" transform="translate(293.809181 0)scale(0.996264)"/>
     <use xlink:href="#CMR17-70" transform="translate(339.499658 0)scale(0.996264)"/>
     <use xlink:href="#CMR17-75" transform="translate(390.395027 0)scale(0.996264)"/>
     <use xlink:href="#CMR17-6c" transform="translate(441.290397 0)scale(0.996264)"/>
     <use xlink:href="#CMR17-61" transform="translate(466.161456 0)scale(0.996264)"/>
     <use xlink:href="#CMR17-74" transform="translate(511.851933 0)scale(0.996264)"/>
     <use xlink:href="#CMR17-69" transform="translate(547.132701 0)scale(0.996264)"/>
     <use xlink:href="#CMR17-6f" transform="translate(572.003759 0)scale(0.996264)"/>
     <use xlink:href="#CMR17-6e" transform="translate(617.694236 0)scale(0.996264)"/>
     <use xlink:href="#CMR17-69" transform="translate(698.665572 0)scale(0.996264)"/>
     <use xlink:href="#CMR17-6e" transform="translate(723.536631 0)scale(0.996264)"/>
     <use xlink:href="#CMR17-62" transform="translate(804.507967 0)scale(0.996264)"/>
     <use xlink:href="#CMR17-61" transform="translate(855.403337 0)scale(0.996264)"/>
     <use xlink:href="#CMR17-63" transform="translate(901.093814 0)scale(0.996264)"/>
     <use xlink:href="#CMR17-74" transform="translate(941.579474 0)scale(0.996264)"/>
     <use xlink:href="#CMR17-65" transform="translate(976.860242 0)scale(0.996264)"/>
     <use xlink:href="#CMR17-72" transform="translate(1017.345903 0)scale(0.996264)"/>
     <use xlink:href="#CMR17-69" transform="translate(1052.62667 0)scale(0.996264)"/>
     <use xlink:href="#CMR17-61" transform="translate(1077.497729 0)scale(0.996264)"/>
     <use xlink:href="#CMR17-6c" transform="translate(1123.188206 0)scale(0.996264)"/>
     <use xlink:href="#CMR17-6d" transform="translate(1178.135231 0)scale(0.996264)"/>
     <use xlink:href="#CMR17-6f" transform="translate(1255.054821 0)scale(0.996264)"/>
     <use xlink:href="#CMR17-64" transform="translate(1303.347737 0)scale(0.996264)"/>
     <use xlink:href="#CMR17-65" transform="translate(1354.243106 0)scale(0.996264)"/>
     <use xlink:href="#CMR17-6c" transform="translate(1394.728767 0)scale(0.996264)"/>
     <use xlink:href="#CMR17-73" transform="translate(1419.599825 0)scale(0.996264)"/>
    </g>
   </g>
   <g id="line2d_24">
    <path d="M 101.355547 306.8533 
L 101.355547 29.6533 
" clip-path="url(#pb62b0a7160)" style="fill: none; stroke-dasharray: 1.5,2.475; stroke-dashoffset: 0; stroke: #000000; stroke-width: 1.5"/>
   </g>
   <g id="legend_1">
    <g id="patch_7">
     <path d="M 499.525614 91.100396 
L 608.547547 91.100396 
Q 610.947547 91.100396 610.947547 88.700396 
L 610.947547 38.0533 
Q 610.947547 35.6533 608.547547 35.6533 
L 499.525614 35.6533 
Q 497.125614 35.6533 497.125614 38.0533 
L 497.125614 88.700396 
Q 497.125614 91.100396 499.525614 91.100396 
z
" style="fill: #ffffff; opacity: 0.8; stroke: #cccccc; stroke-linejoin: miter"/>
    </g>
    <g id="text_20">
     <!-- Color -->
     <g transform="translate(537.72408 50.139177)scale(0.14 -0.14)">
      <defs>
       <path id="CMR17-43" d="M 3974 4351 
C 3974 4467 3968 4473 3930 4473 
C 3904 4473 3898 4467 3853 4390 
L 3571 3849 
C 3258 4249 2874 4480 2381 4480 
C 1286 4480 294 3507 294 2179 
C 294 837 1286 -128 2387 -128 
C 3366 -128 3974 741 3974 1482 
C 3974 1547 3974 1573 3917 1573 
C 3866 1573 3866 1553 3859 1495 
C 3808 592 3168 38 2477 38 
C 1824 38 781 502 781 2179 
C 781 3862 1843 4313 2464 4313 
C 3187 4313 3712 3681 3834 2785 
C 3846 2707 3846 2695 3904 2695 
C 3974 2695 3974 2707 3974 2824 
L 3974 4351 
z
" transform="scale(0.015625)"/>
      </defs>
      <use xlink:href="#CMR17-43" transform="scale(0.996264)"/>
      <use xlink:href="#CMR17-6f" transform="translate(66.509881 0)scale(0.996264)"/>
      <use xlink:href="#CMR17-6c" transform="translate(112.200358 0)scale(0.996264)"/>
      <use xlink:href="#CMR17-6f" transform="translate(137.071416 0)scale(0.996264)"/>
      <use xlink:href="#CMR17-72" transform="translate(182.761893 0)scale(0.996264)"/>
     </g>
    </g>
    <g id="line2d_25">
     <path d="M 501.925614 63.051205 
L 513.925614 63.051205 
L 525.925614 63.051205 
" style="fill: none; stroke: #65156e; stroke-width: 2; stroke-linecap: square"/>
    </g>
    <g id="text_21">
     <!-- Saturation -->
     <g transform="translate(535.525614 67.251205)scale(0.12 -0.12)">
      <use xlink:href="#CMR17-53" transform="scale(0.996264)"/>
      <use xlink:href="#CMR17-61" transform="translate(50.89537 0)scale(0.996264)"/>
      <use xlink:href="#CMR17-74" transform="translate(96.585847 0)scale(0.996264)"/>
      <use xlink:href="#CMR17-75" transform="translate(131.866615 0)scale(0.996264)"/>
      <use xlink:href="#CMR17-72" transform="translate(182.761984 0)scale(0.996264)"/>
      <use xlink:href="#CMR17-61" transform="translate(218.042752 0)scale(0.996264)"/>
      <use xlink:href="#CMR17-74" transform="translate(263.733229 0)scale(0.996264)"/>
      <use xlink:href="#CMR17-69" transform="translate(299.013997 0)scale(0.996264)"/>
      <use xlink:href="#CMR17-6f" transform="translate(323.885056 0)scale(0.996264)"/>
      <use xlink:href="#CMR17-6e" transform="translate(369.575533 0)scale(0.996264)"/>
     </g>
    </g>
    <g id="line2d_26">
     <path d="M 501.925614 79.775801 
L 513.925614 79.775801 
L 525.925614 79.775801 
" style="fill: none; stroke: #d44842; stroke-width: 2; stroke-linecap: square"/>
    </g>
    <g id="text_22">
     <!-- No saturation -->
     <g transform="translate(535.525614 83.975801)scale(0.12 -0.12)">
      <defs>
       <path id="CMR17-4e" d="M 1312 4275 
C 1267 4345 1261 4352 1139 4352 
L 326 4352 
L 326 4185 
L 448 4185 
C 704 4185 819 4153 838 4147 
L 838 624 
C 838 465 838 166 326 166 
L 326 0 
C 474 12 742 12 902 12 
C 1062 12 1331 12 1478 0 
L 1478 166 
C 966 166 966 465 966 624 
L 966 4057 
C 1011 4019 1011 4007 1056 3943 
L 3430 76 
C 3475 0 3494 0 3526 0 
C 3590 0 3590 19 3590 140 
L 3590 3726 
C 3590 3885 3590 4185 4102 4185 
L 4102 4352 
C 3955 4339 3686 4339 3526 4339 
C 3366 4339 3098 4339 2950 4352 
L 2950 4185 
C 3462 4185 3462 3885 3462 3726 
L 3462 777 
L 1312 4275 
z
" transform="scale(0.015625)"/>
      </defs>
      <use xlink:href="#CMR17-4e" transform="scale(0.996264)"/>
      <use xlink:href="#CMR17-6f" transform="translate(69.07243 0)scale(0.996264)"/>
      <use xlink:href="#CMR17-73" transform="translate(144.838873 0)scale(0.996264)"/>
      <use xlink:href="#CMR17-61" transform="translate(180.640211 0)scale(0.996264)"/>
      <use xlink:href="#CMR17-74" transform="translate(226.330688 0)scale(0.996264)"/>
      <use xlink:href="#CMR17-75" transform="translate(261.611456 0)scale(0.996264)"/>
      <use xlink:href="#CMR17-72" transform="translate(312.506826 0)scale(0.996264)"/>
      <use xlink:href="#CMR17-61" transform="translate(347.787593 0)scale(0.996264)"/>
      <use xlink:href="#CMR17-74" transform="translate(393.478071 0)scale(0.996264)"/>
      <use xlink:href="#CMR17-69" transform="translate(428.758838 0)scale(0.996264)"/>
      <use xlink:href="#CMR17-6f" transform="translate(453.629897 0)scale(0.996264)"/>
      <use xlink:href="#CMR17-6e" transform="translate(499.320374 0)scale(0.996264)"/>
     </g>
    </g>
   </g>
   <g id="legend_2">
    <g id="patch_8">
     <path d="M 499.762237 152.084396 
L 599.619547 152.084396 
Q 602.019547 152.084396 602.019547 149.684396 
L 602.019547 99.0373 
Q 602.019547 96.6373 599.619547 96.6373 
L 499.762237 96.6373 
Q 497.362237 96.6373 497.362237 99.0373 
L 497.362237 149.684396 
Q 497.362237 152.084396 499.762237 152.084396 
z
" style="fill: #ffffff; opacity: 0.8; stroke: #cccccc; stroke-linejoin: miter"/>
    </g>
    <g id="text_23">
     <!-- Line style -->
     <g transform="translate(520.727924 111.123177)scale(0.14 -0.14)">
      <defs>
       <path id="CMR17-4c" d="M 3469 1612 
L 3354 1612 
C 3302 981 3219 166 2125 166 
L 1530 166 
C 1274 166 1261 198 1261 414 
L 1261 3892 
C 1261 4121 1274 4185 1760 4185 
L 1901 4185 
L 1901 4352 
C 1638 4339 1331 4339 1069 4339 
C 870 4339 512 4339 326 4352 
L 326 4185 
C 768 4185 838 4185 838 3898 
L 838 453 
C 838 166 768 166 326 166 
L 326 0 
L 3315 0 
L 3469 1612 
z
" transform="scale(0.015625)"/>
       <path id="CMR17-79" d="M 2496 2183 
C 2656 2579 2944 2585 3034 2585 
L 3034 2752 
C 2912 2745 2752 2739 2630 2739 
C 2496 2739 2285 2739 2157 2752 
L 2157 2585 
C 2400 2566 2406 2384 2406 2332 
C 2406 2268 2394 2235 2362 2158 
L 1664 409 
L 902 2300 
C 870 2378 870 2423 870 2430 
C 870 2572 1018 2585 1171 2585 
L 1171 2752 
C 1018 2739 742 2739 582 2739 
C 410 2739 205 2739 64 2752 
L 64 2585 
C 410 2585 448 2553 531 2345 
L 1485 -31 
C 1197 -795 1030 -1242 627 -1242 
C 557 -1242 397 -1223 282 -1106 
C 429 -1093 493 -1002 493 -892 
C 493 -782 416 -685 288 -685 
C 147 -685 77 -782 77 -899 
C 77 -1158 339 -1344 627 -1344 
C 998 -1344 1229 -983 1357 -659 
L 2496 2183 
z
" transform="scale(0.015625)"/>
      </defs>
      <use xlink:href="#CMR17-4c" transform="scale(0.996264)"/>
      <use xlink:href="#CMR17-69" transform="translate(57.381408 0)scale(0.996264)"/>
      <use xlink:href="#CMR17-6e" transform="translate(82.252466 0)scale(0.996264)"/>
      <use xlink:href="#CMR17-65" transform="translate(133.147836 0)scale(0.996264)"/>
      <use xlink:href="#CMR17-73" transform="translate(203.709463 0)scale(0.996264)"/>
      <use xlink:href="#CMR17-74" transform="translate(239.510801 0)scale(0.996264)"/>
      <use xlink:href="#CMR17-79" transform="translate(272.189114 0)scale(0.996264)"/>
      <use xlink:href="#CMR17-6c" transform="translate(320.48203 0)scale(0.996264)"/>
      <use xlink:href="#CMR17-65" transform="translate(345.353089 0)scale(0.996264)"/>
     </g>
    </g>
    <g id="line2d_27">
     <path d="M 502.162237 124.035205 
L 514.162237 124.035205 
L 526.162237 124.035205 
" style="fill: none; stroke: #000000; stroke-width: 2; stroke-linecap: square"/>
    </g>
    <g id="text_24">
     <!-- $x_I$ = center -->
     <g transform="translate(535.762237 128.235205)scale(0.12 -0.12)">
      <defs>
       <path id="CMMI12-78" d="M 3034 2624 
C 2829 2585 2752 2431 2752 2310 
C 2752 2156 2874 2105 2963 2105 
C 3155 2105 3290 2271 3290 2444 
C 3290 2694 2982 2816 2714 2816 
C 2323 2816 2106 2451 2048 2329 
C 1901 2790 1504 2816 1389 2816 
C 736 2816 390 1993 390 1849 
C 390 1823 416 1790 461 1790 
C 512 1790 525 1829 538 1855 
C 755 2572 1184 2687 1370 2687 
C 1658 2687 1715 2438 1715 2284 
C 1715 2143 1677 1993 1600 1678 
L 1382 778 
C 1286 390 1101 64 762 64 
C 730 64 570 64 435 126 
C 666 166 717 358 717 435 
C 717 563 621 640 499 640 
C 346 640 179 505 179 300 
C 179 57 480 -64 755 -64 
C 1062 -64 1280 153 1414 415 
C 1517 64 1837 -64 2074 -64 
C 2726 -64 3072 751 3072 896 
C 3072 929 3046 955 3008 955 
C 2950 955 2944 922 2925 870 
C 2752 300 2381 64 2093 64 
C 1869 64 1747 204 1747 467 
C 1747 607 1773 712 1875 1146 
L 2099 2039 
C 2195 2425 2413 2687 2707 2687 
C 2720 2687 2899 2687 3034 2624 
z
" transform="scale(0.015625)"/>
       <path id="CMMI12-49" d="M 2355 3879 
C 2413 4102 2426 4166 2893 4166 
C 3034 4166 3085 4166 3085 4287 
C 3085 4352 3014 4352 2995 4352 
C 2880 4352 2739 4339 2624 4339 
L 1837 4339 
C 1709 4339 1562 4352 1434 4352 
C 1382 4352 1312 4352 1312 4230 
C 1312 4166 1363 4166 1491 4166 
C 1888 4166 1888 4115 1888 4045 
C 1888 4000 1875 3962 1862 3905 
L 998 472 
C 941 249 928 185 461 185 
C 320 185 262 185 262 64 
C 262 0 326 0 358 0 
C 474 0 614 12 730 12 
L 1517 12 
C 1645 12 1786 0 1914 0 
C 1965 0 2042 0 2042 115 
C 2042 185 2003 185 1862 185 
C 1466 185 1466 236 1466 312 
C 1466 325 1466 357 1491 459 
L 2355 3879 
z
" transform="scale(0.015625)"/>
       <path id="CMR17-3d" d="M 4115 2048 
C 4211 2048 4307 2048 4307 2156 
C 4307 2272 4198 2272 4090 2272 
L 512 2272 
C 403 2272 294 2272 294 2156 
C 294 2048 390 2048 486 2048 
L 4115 2048 
z
M 4090 927 
C 4198 927 4307 927 4307 1043 
C 4307 1152 4211 1152 4115 1152 
L 486 1152 
C 390 1152 294 1152 294 1043 
C 294 927 403 927 512 927 
L 4090 927 
z
" transform="scale(0.015625)"/>
      </defs>
      <use xlink:href="#CMMI12-78" transform="scale(0.996264)"/>
      <use xlink:href="#CMMI12-49" transform="translate(55.43406 -14.943915)scale(0.697382)"/>
      <use xlink:href="#CMR17-3d" transform="translate(121.60754 0)scale(0.996264)"/>
      <use xlink:href="#CMR17-63" transform="translate(223.398295 0)scale(0.996264)"/>
      <use xlink:href="#CMR17-65" transform="translate(263.883955 0)scale(0.996264)"/>
      <use xlink:href="#CMR17-6e" transform="translate(304.369616 0)scale(0.996264)"/>
      <use xlink:href="#CMR17-74" transform="translate(352.662531 0)scale(0.996264)"/>
      <use xlink:href="#CMR17-65" transform="translate(387.943299 0)scale(0.996264)"/>
      <use xlink:href="#CMR17-72" transform="translate(428.42896 0)scale(0.996264)"/>
     </g>
    </g>
    <g id="line2d_28">
     <path d="M 502.162237 140.759801 
L 514.162237 140.759801 
L 526.162237 140.759801 
" style="fill: none; stroke-dasharray: 7.4,3.2; stroke-dashoffset: 0; stroke: #000000; stroke-width: 2"/>
    </g>
    <g id="text_25">
     <!-- $x_I \approx$ border -->
     <g transform="translate(535.762237 144.959801)scale(0.12 -0.12)">
      <defs>
       <path id="CMSY10-19" d="M 4621 2912 
C 4621 3046 4576 3104 4531 3104 
C 4506 3104 4448 3078 4442 2931 
C 4416 2483 3968 2214 3552 2214 
C 3181 2214 2861 2417 2528 2647 
C 2182 2880 1837 3110 1421 3110 
C 826 3110 352 2653 352 2054 
C 352 1913 403 1862 442 1862 
C 506 1862 531 1984 531 2009 
C 563 2555 1088 2752 1421 2752 
C 1792 2752 2112 2548 2445 2319 
C 2790 2086 3136 1856 3552 1856 
C 4147 1856 4621 2312 4621 2912 
z
M 4621 1395 
C 4621 1580 4544 1593 4531 1593 
C 4506 1593 4448 1561 4442 1420 
C 4416 972 3968 704 3552 704 
C 3181 704 2861 907 2528 1136 
C 2182 1369 1837 1600 1421 1600 
C 826 1600 352 1143 352 543 
C 352 403 403 351 442 351 
C 506 351 531 473 531 499 
C 563 1044 1088 1241 1421 1241 
C 1792 1241 2112 1038 2445 808 
C 2790 575 3136 345 3552 345 
C 4160 345 4621 822 4621 1395 
z
" transform="scale(0.015625)"/>
      </defs>
      <use xlink:href="#CMMI12-78" transform="scale(0.996264)"/>
      <use xlink:href="#CMMI12-49" transform="translate(55.43406 -14.943915)scale(0.697382)"/>
      <use xlink:href="#CMSY10-19" transform="translate(119.205582 0)scale(0.996264)"/>
      <use xlink:href="#CMR17-62" transform="translate(226.769016 0)scale(0.996264)"/>
      <use xlink:href="#CMR17-6f" transform="translate(280.266825 0)scale(0.996264)"/>
      <use xlink:href="#CMR17-72" transform="translate(325.957302 0)scale(0.996264)"/>
      <use xlink:href="#CMR17-64" transform="translate(361.23807 0)scale(0.996264)"/>
      <use xlink:href="#CMR17-65" transform="translate(412.133439 0)scale(0.996264)"/>
      <use xlink:href="#CMR17-72" transform="translate(452.6191 0)scale(0.996264)"/>
     </g>
    </g>
   </g>
  </g>
 </g>
 <defs>
  <clipPath id="pb62b0a7160">
   <rect x="45.555547" y="29.6533" width="446.4" height="277.2"/>
  </clipPath>
 </defs>
</svg>
